<svg xmlns="http://www.w3.org/2000/svg" xmlns:xlink="http://www.w3.org/1999/xlink" width="120" zoomAndPan="magnify" viewBox="0 0 90 89.999999" height="120" preserveAspectRatio="xMidYMid meet" version="1.0"><defs><clipPath id="f9dfd4ed85"><path d="M 1 4.839844 L 88.5 4.839844 L 88.5 85 L 1 85 Z M 1 4.839844 " clip-rule="nonzero"/></clipPath></defs><g clip-path="url(#f9dfd4ed85)"><path fill="#febbcc" d="M 79.894531 52.582031 L 74.152344 59.578125 C 73.714844 60.109375 72.917969 60.1875 72.398438 59.734375 L 68.089844 56.089844 C 67.566406 55.648438 67.503906 54.867188 67.953125 54.34375 C 68.390625 53.824219 69.171875 53.757812 69.699219 54.199219 L 73.039062 57.03125 L 77.988281 51.007812 C 78.417969 50.480469 79.199219 50.402344 79.722656 50.835938 C 80.257812 51.269531 80.335938 52.050781 79.894531 52.582031 Z M 79.894531 36.683594 L 74.152344 43.679688 C 73.714844 44.210938 72.917969 44.289062 72.398438 43.839844 L 68.089844 40.191406 C 67.566406 39.75 67.503906 38.96875 67.953125 38.445312 C 68.390625 37.925781 69.171875 37.859375 69.699219 38.304688 L 73.039062 41.136719 L 77.988281 35.109375 C 78.417969 34.582031 79.199219 34.503906 79.722656 34.9375 C 80.257812 35.375 80.335938 36.152344 79.894531 36.683594 Z M 67.953125 22.546875 C 68.390625 22.027344 69.171875 21.964844 69.699219 22.40625 L 73.039062 25.238281 L 77.988281 19.210938 C 78.417969 18.683594 79.199219 18.609375 79.722656 19.042969 C 80.257812 19.476562 80.335938 20.257812 79.894531 20.785156 L 74.152344 27.78125 C 73.714844 28.3125 72.917969 28.390625 72.398438 27.941406 L 68.089844 24.296875 C 67.566406 23.851562 67.503906 23.070312 67.953125 22.546875 Z M 86.011719 68.25 L 86.011719 10.539062 C 86.011719 8.773438 84.566406 7.339844 82.796875 7.339844 L 56.609375 7.339844 L 56.609375 18.066406 C 56.609375 21.199219 54.058594 23.746094 50.921875 23.746094 L 40.1875 23.746094 L 40.1875 41.605469 C 45.425781 37.820312 50.976562 37.636719 55.515625 41.257812 C 58.097656 43.324219 59.695312 45.933594 60.261719 49.011719 C 61.011719 53.101562 59.726562 57.289062 56.800781 60.207031 L 45.542969 71.453125 L 82.796875 71.453125 C 84.566406 71.453125 86.011719 70.015625 86.011719 68.25 Z M 38.28125 75.207031 L 34.0625 70.996094 L 34.597656 70.457031 C 38.691406 66.355469 38.683594 59.707031 34.597656 55.625 C 29.972656 51.007812 24.328125 51.832031 19.625 55.84375 C 18.550781 53.699219 18.273438 51.21875 18.863281 48.84375 C 19.527344 46.179688 20.910156 44.261719 23.363281 42.625 C 29.273438 38.6875 35.15625 43.496094 37.402344 45.742188 C 37.875 46.222656 38.667969 46.230469 39.148438 45.742188 C 41.558594 43.339844 47.816406 38.28125 53.964844 43.195312 C 56.074219 44.875 57.371094 46.984375 57.828125 49.457031 C 58.429688 52.75 57.390625 56.113281 55.046875 58.457031 Z M 19.34375 82.199219 L 32.851562 68.703125 C 35.96875 65.582031 35.964844 60.488281 32.851562 57.375 C 28.785156 53.308594 24.070312 54.828125 20.222656 58.664062 L 20.050781 58.808594 C 20.050781 58.808594 20.042969 58.808594 20.042969 58.816406 C 19.820312 58.9375 19.6875 59.011719 19.410156 59.027344 C 18.980469 59.046875 18.757812 58.898438 18.476562 58.675781 C 18.476562 58.671875 18.464844 58.667969 18.464844 58.664062 C 16.429688 56.628906 14.257812 55.378906 12.179688 55.046875 C 9.847656 54.683594 7.726562 55.492188 5.839844 57.375 C 2.722656 60.488281 2.722656 65.59375 5.839844 68.703125 Z M 54.132812 9.089844 L 54.132812 18.066406 C 54.132812 19.832031 52.6875 21.269531 50.921875 21.269531 L 41.945312 21.269531 Z M 82.796875 4.859375 L 55.367188 4.859375 C 55.046875 4.859375 54.722656 4.992188 54.5 5.222656 L 38.066406 21.632812 C 37.84375 21.863281 37.714844 22.175781 37.714844 22.507812 L 37.714844 42.664062 C 33.046875 38.703125 27.25 37.054688 21.992188 40.566406 C 19.023438 42.542969 17.265625 44.984375 16.453125 48.246094 C 15.980469 50.144531 15.972656 52.097656 16.367188 53.957031 C 12.140625 51.632812 7.734375 51.976562 4.082031 55.625 C -0.0078125 59.710938 -0.00390625 66.371094 4.082031 70.457031 L 17.964844 84.320312 C 18.722656 85.082031 19.957031 85.082031 20.726562 84.320312 L 32.304688 72.746094 L 36.78125 77.214844 C 37.605469 78.039062 38.945312 78.042969 39.769531 77.214844 L 43.070312 73.917969 C 43.175781 73.925781 43.285156 73.929688 43.390625 73.929688 L 82.796875 73.929688 C 85.9375 73.929688 88.484375 71.382812 88.484375 68.25 L 88.484375 10.539062 C 88.484375 7.410156 85.9375 4.859375 82.796875 4.859375 Z M 82.796875 4.859375 " fill-opacity="1" fill-rule="evenodd"/></g></svg>