<svg xmlns="http://www.w3.org/2000/svg" xmlns:xlink="http://www.w3.org/1999/xlink" width="120" zoomAndPan="magnify" viewBox="0 0 90 89.999999" height="120" preserveAspectRatio="xMidYMid meet" version="1.0"><defs><clipPath id="dc14b61cbf"><path d="M 0.0898438 9.84375 L 89.898438 9.84375 L 89.898438 80.34375 L 0.0898438 80.34375 Z M 0.0898438 9.84375 " clip-rule="nonzero"/></clipPath></defs><g clip-path="url(#dc14b61cbf)"><path fill="#febbcc" d="M 29.542969 65.832031 C 26.9375 63.25 25.28125 60.5 23.875 57.914062 C 15.476562 42.441406 25.503906 31.453125 36.234375 34.5 C 40.617188 35.742188 42.519531 37.605469 45.121094 40.621094 C 47.625 37.714844 49.46875 35.789062 54.003906 34.5 C 61.863281 32.269531 70.574219 38.691406 69.414062 47.164062 C 68.207031 55.988281 59.980469 62.644531 53.304688 65.660156 C 51.785156 66.34375 50.75 64.046875 52.269531 63.359375 C 58.84375 60.386719 65.921875 54.121094 66.921875 46.820312 C 67.824219 40.21875 60.859375 35.179688 54.6875 36.929688 C 49.347656 38.445312 48.113281 41.304688 46.136719 43.230469 C 45.648438 43.875 44.695312 43.894531 44.167969 43.292969 C 42.148438 41.367188 40.953125 38.460938 35.550781 36.929688 C 26.867188 34.464844 18.824219 43.332031 26.085938 56.703125 C 27.398438 59.125 28.941406 61.683594 31.3125 64.035156 C 46.324219 78.914062 59.304688 77.8125 79.195312 77.8125 C 83.707031 77.8125 87.378906 74.128906 87.378906 69.605469 L 87.378906 27.945312 C 87.378906 23.421875 83.707031 19.742188 79.195312 19.742188 L 62.949219 19.742188 C 62.363281 19.742188 61.851562 19.332031 61.722656 18.757812 C 60.875 14.996094 57.59375 12.371094 53.742188 12.371094 L 36.242188 12.371094 C 32.394531 12.371094 29.113281 14.996094 28.261719 18.757812 C 28.132812 19.332031 27.625 19.742188 27.035156 19.742188 L 10.789062 19.742188 C 6.277344 19.742188 2.605469 23.421875 2.605469 27.945312 L 2.605469 69.605469 C 2.605469 74.128906 6.277344 77.8125 10.789062 77.8125 L 22.46875 77.8125 C 24.132812 77.8125 24.136719 80.335938 22.46875 80.335938 L 10.789062 80.335938 C 4.890625 80.335938 0.0898438 75.523438 0.0898438 69.605469 L 0.0898438 27.945312 C 0.0898438 22.03125 4.890625 17.21875 10.789062 17.21875 L 26.078125 17.21875 C 27.503906 12.828125 31.550781 9.84375 36.242188 9.84375 L 53.742188 9.84375 C 58.433594 9.84375 62.480469 12.828125 63.910156 17.21875 L 79.195312 17.21875 C 85.097656 17.21875 89.898438 22.03125 89.898438 27.945312 L 89.898438 69.605469 C 89.898438 75.523438 85.097656 80.335938 79.195312 80.335938 C 59.542969 80.335938 45.367188 81.515625 29.542969 65.832031 " fill-opacity="1" fill-rule="nonzero"/></g><path fill="#febbcc" d="M 26.679688 51.074219 C 24.523438 46.3125 26.464844 39.832031 31.703125 38.714844 C 33.328125 38.363281 33.855469 40.835938 32.226562 41.183594 C 28.636719 41.949219 27.476562 46.730469 28.972656 50.03125 C 29.660156 51.554688 27.363281 52.589844 26.679688 51.074219 " fill-opacity="1" fill-rule="nonzero"/><path fill="#febbcc" d="M 77.875 15.367188 L 70.105469 15.367188 C 68.441406 15.367188 68.4375 12.839844 70.105469 12.839844 L 77.875 12.839844 C 79.535156 12.839844 79.539062 15.367188 77.875 15.367188 " fill-opacity="1" fill-rule="nonzero"/></svg>