<svg xmlns="http://www.w3.org/2000/svg" xmlns:xlink="http://www.w3.org/1999/xlink" width="120" zoomAndPan="magnify" viewBox="0 0 90 89.999999" height="120" preserveAspectRatio="xMidYMid meet" version="1.0"><defs><clipPath id="a1dc2aa6cd"><path d="M 0.65625 1.316406 L 89.15625 1.316406 L 89.15625 89.816406 L 0.65625 89.816406 Z M 0.65625 1.316406 " clip-rule="nonzero"/></clipPath></defs><g clip-path="url(#a1dc2aa6cd)"><path fill="#febbcc" d="M 87.0625 85.648438 L 84.816406 85.648438 L 84.816406 78.113281 C 84.816406 77.839844 84.765625 77.574219 84.660156 77.320312 C 84.554688 77.066406 84.402344 76.84375 84.207031 76.648438 C 84.011719 76.453125 83.789062 76.304688 83.535156 76.199219 C 83.28125 76.09375 83.015625 76.042969 82.742188 76.042969 L 78.078125 76.042969 L 78.078125 34.507812 C 78.078125 33.421875 78.027344 32.335938 77.917969 31.257812 C 77.8125 30.175781 77.652344 29.101562 77.441406 28.035156 C 77.230469 26.96875 76.964844 25.917969 76.652344 24.878906 C 76.335938 23.839844 75.96875 22.816406 75.554688 21.8125 C 75.136719 20.808594 74.675781 19.828125 74.164062 18.871094 C 73.652344 17.914062 73.09375 16.980469 72.488281 16.078125 C 71.886719 15.175781 71.238281 14.304688 70.550781 13.464844 C 69.859375 12.625 69.132812 11.820312 68.363281 11.050781 C 67.59375 10.285156 66.792969 9.554688 65.953125 8.867188 C 65.113281 8.175781 64.242188 7.53125 63.335938 6.925781 C 62.433594 6.324219 61.503906 5.765625 60.542969 5.253906 C 59.585938 4.742188 58.605469 4.277344 57.601562 3.859375 C 56.597656 3.445312 55.578125 3.078125 54.539062 2.765625 C 53.496094 2.449219 52.445312 2.183594 51.378906 1.972656 C 50.3125 1.761719 49.242188 1.601562 48.160156 1.496094 C 47.078125 1.390625 45.996094 1.335938 44.90625 1.335938 C 43.820312 1.335938 42.738281 1.390625 41.65625 1.496094 C 40.574219 1.601562 39.503906 1.761719 38.4375 1.972656 C 37.371094 2.183594 36.320312 2.449219 35.277344 2.765625 C 34.238281 3.078125 33.21875 3.445312 32.214844 3.859375 C 31.210938 4.277344 30.230469 4.742188 29.269531 5.253906 C 28.3125 5.765625 27.382812 6.324219 26.480469 6.925781 C 25.574219 7.53125 24.703125 8.175781 23.863281 8.867188 C 23.023438 9.554688 22.21875 10.285156 21.453125 11.050781 C 20.683594 11.820312 19.957031 12.625 19.265625 13.464844 C 18.578125 14.304688 17.929688 15.175781 17.328125 16.078125 C 16.722656 16.980469 16.164062 17.914062 15.652344 18.871094 C 15.140625 19.828125 14.675781 20.808594 14.261719 21.8125 C 13.847656 22.816406 13.480469 23.839844 13.164062 24.878906 C 12.847656 25.917969 12.585938 26.96875 12.375 28.035156 C 12.160156 29.101562 12.003906 30.175781 11.894531 31.257812 C 11.789062 32.335938 11.738281 33.421875 11.738281 34.507812 L 11.738281 76.042969 L 7.09375 76.042969 C 6.820312 76.042969 6.554688 76.09375 6.300781 76.199219 C 6.046875 76.304688 5.824219 76.453125 5.628906 76.648438 C 5.433594 76.84375 5.285156 77.066406 5.179688 77.320312 C 5.070312 77.574219 5.019531 77.839844 5.019531 78.113281 L 5.019531 85.648438 L 2.753906 85.648438 C 2.480469 85.648438 2.214844 85.699219 1.960938 85.804688 C 1.707031 85.910156 1.484375 86.0625 1.289062 86.253906 C 1.09375 86.449219 0.945312 86.671875 0.839844 86.925781 C 0.734375 87.179688 0.683594 87.445312 0.683594 87.71875 C 0.683594 87.996094 0.734375 88.257812 0.839844 88.511719 C 0.945312 88.765625 1.09375 88.992188 1.289062 89.183594 C 1.484375 89.378906 1.707031 89.527344 1.960938 89.632812 C 2.214844 89.738281 2.480469 89.792969 2.753906 89.792969 L 87.0625 89.792969 C 87.335938 89.792969 87.601562 89.738281 87.855469 89.632812 C 88.109375 89.527344 88.332031 89.378906 88.527344 89.183594 C 88.722656 88.992188 88.871094 88.765625 88.976562 88.511719 C 89.082031 88.257812 89.132812 87.996094 89.132812 87.71875 C 89.132812 87.445312 89.082031 87.179688 88.976562 86.925781 C 88.871094 86.671875 88.722656 86.449219 88.527344 86.253906 C 88.332031 86.0625 88.109375 85.910156 87.855469 85.804688 C 87.601562 85.699219 87.335938 85.648438 87.0625 85.648438 Z M 15.882812 34.507812 C 15.882812 33.558594 15.929688 32.609375 16.023438 31.664062 C 16.117188 30.714844 16.257812 29.777344 16.441406 28.84375 C 16.628906 27.914062 16.859375 26.992188 17.132812 26.082031 C 17.410156 25.171875 17.730469 24.277344 18.09375 23.402344 C 18.457031 22.523438 18.863281 21.664062 19.3125 20.824219 C 19.757812 19.988281 20.246094 19.171875 20.777344 18.382812 C 21.304688 17.59375 21.871094 16.828125 22.472656 16.09375 C 23.074219 15.359375 23.710938 14.65625 24.386719 13.984375 C 25.058594 13.3125 25.761719 12.675781 26.496094 12.070312 C 27.230469 11.46875 27.992188 10.902344 28.78125 10.375 C 29.574219 9.847656 30.386719 9.359375 31.226562 8.910156 C 32.066406 8.460938 32.921875 8.058594 33.800781 7.691406 C 34.679688 7.328125 35.574219 7.007812 36.484375 6.734375 C 37.390625 6.457031 38.3125 6.226562 39.246094 6.042969 C 40.179688 5.855469 41.117188 5.714844 42.0625 5.625 C 43.007812 5.53125 43.957031 5.484375 44.90625 5.484375 C 45.859375 5.484375 46.808594 5.53125 47.753906 5.625 C 48.699219 5.714844 49.636719 5.855469 50.570312 6.042969 C 51.503906 6.226562 52.421875 6.457031 53.332031 6.734375 C 54.242188 7.007812 55.136719 7.328125 56.015625 7.691406 C 56.894531 8.058594 57.75 8.460938 58.589844 8.910156 C 59.429688 9.359375 60.242188 9.847656 61.03125 10.375 C 61.824219 10.902344 62.585938 11.46875 63.320312 12.070312 C 64.054688 12.675781 64.757812 13.3125 65.429688 13.984375 C 66.101562 14.65625 66.742188 15.359375 67.34375 16.09375 C 67.945312 16.828125 68.511719 17.59375 69.039062 18.382812 C 69.570312 19.171875 70.058594 19.988281 70.503906 20.824219 C 70.953125 21.664062 71.359375 22.523438 71.722656 23.402344 C 72.085938 24.277344 72.40625 25.171875 72.683594 26.082031 C 72.957031 26.992188 73.1875 27.914062 73.375 28.84375 C 73.558594 29.777344 73.699219 30.714844 73.792969 31.664062 C 73.886719 32.609375 73.933594 33.558594 73.933594 34.507812 L 73.933594 76.042969 L 68.472656 76.042969 L 68.472656 35.105469 C 68.472656 34.335938 68.433594 33.566406 68.359375 32.796875 C 68.285156 32.027344 68.171875 31.265625 68.019531 30.507812 C 67.871094 29.753906 67.683594 29.003906 67.457031 28.265625 C 67.234375 27.527344 66.976562 26.800781 66.679688 26.089844 C 66.382812 25.375 66.054688 24.679688 65.691406 24 C 65.328125 23.316406 64.929688 22.65625 64.5 22.015625 C 64.074219 21.375 63.613281 20.753906 63.125 20.15625 C 62.632812 19.5625 62.117188 18.988281 61.570312 18.445312 C 61.023438 17.898438 60.453125 17.378906 59.859375 16.890625 C 59.261719 16.402344 58.640625 15.941406 58 15.511719 C 57.359375 15.085938 56.695312 14.6875 56.015625 14.324219 C 55.335938 13.960938 54.640625 13.632812 53.925781 13.335938 C 53.214844 13.039062 52.488281 12.78125 51.75 12.554688 C 51.011719 12.332031 50.261719 12.144531 49.503906 11.996094 C 48.75 11.84375 47.984375 11.730469 47.21875 11.65625 C 46.449219 11.578125 45.679688 11.542969 44.90625 11.542969 C 44.136719 11.542969 43.367188 11.578125 42.597656 11.65625 C 41.832031 11.730469 41.066406 11.84375 40.3125 11.996094 C 39.554688 12.144531 38.804688 12.332031 38.066406 12.554688 C 37.328125 12.78125 36.601562 13.039062 35.890625 13.335938 C 35.175781 13.632812 34.480469 13.960938 33.800781 14.324219 C 33.117188 14.6875 32.457031 15.085938 31.816406 15.511719 C 31.175781 15.941406 30.554688 16.402344 29.957031 16.890625 C 29.363281 17.378906 28.789062 17.898438 28.246094 18.445312 C 27.699219 18.988281 27.179688 19.5625 26.691406 20.15625 C 26.203125 20.753906 25.742188 21.375 25.3125 22.015625 C 24.886719 22.65625 24.488281 23.316406 24.125 24 C 23.761719 24.679688 23.433594 25.375 23.136719 26.089844 C 22.839844 26.800781 22.582031 27.527344 22.359375 28.265625 C 22.132812 29.003906 21.945312 29.753906 21.796875 30.507812 C 21.644531 31.265625 21.53125 32.027344 21.457031 32.796875 C 21.378906 33.566406 21.34375 34.335938 21.34375 35.105469 L 21.34375 76.042969 L 15.882812 76.042969 Z M 28.082031 85.648438 L 9.144531 85.648438 L 9.144531 80.191406 L 28.082031 80.191406 Z M 57.589844 78.113281 L 57.589844 85.648438 L 32.222656 85.648438 L 32.222656 78.113281 C 32.222656 77.839844 32.171875 77.574219 32.066406 77.320312 C 31.960938 77.066406 31.8125 76.84375 31.617188 76.648438 C 31.421875 76.453125 31.199219 76.304688 30.945312 76.199219 C 30.691406 76.09375 30.425781 76.042969 30.152344 76.042969 L 25.492188 76.042969 L 25.492188 35.105469 C 25.488281 34.472656 25.519531 33.835938 25.582031 33.203125 C 25.644531 32.570312 25.738281 31.941406 25.863281 31.316406 C 25.984375 30.695312 26.140625 30.078125 26.324219 29.46875 C 26.507812 28.859375 26.722656 28.261719 26.964844 27.675781 C 27.210938 27.085938 27.480469 26.511719 27.78125 25.949219 C 28.082031 25.390625 28.40625 24.84375 28.761719 24.316406 C 29.113281 23.785156 29.492188 23.277344 29.894531 22.785156 C 30.300781 22.292969 30.726562 21.820312 31.175781 21.371094 C 31.625 20.921875 32.09375 20.496094 32.585938 20.09375 C 33.078125 19.6875 33.589844 19.308594 34.117188 18.957031 C 34.648438 18.601562 35.191406 18.277344 35.753906 17.976562 C 36.3125 17.675781 36.886719 17.40625 37.476562 17.160156 C 38.0625 16.917969 38.660156 16.703125 39.269531 16.519531 C 39.878906 16.335938 40.496094 16.179688 41.117188 16.054688 C 41.742188 15.933594 42.371094 15.839844 43.003906 15.777344 C 43.636719 15.714844 44.273438 15.683594 44.90625 15.683594 C 45.542969 15.683594 46.179688 15.714844 46.8125 15.777344 C 47.445312 15.839844 48.074219 15.933594 48.695312 16.054688 C 49.320312 16.179688 49.9375 16.335938 50.546875 16.519531 C 51.15625 16.703125 51.753906 16.917969 52.339844 17.160156 C 52.929688 17.40625 53.503906 17.675781 54.0625 17.976562 C 54.625 18.277344 55.167969 18.601562 55.699219 18.957031 C 56.226562 19.308594 56.738281 19.6875 57.230469 20.09375 C 57.71875 20.496094 58.191406 20.921875 58.640625 21.371094 C 59.089844 21.820312 59.515625 22.292969 59.921875 22.785156 C 60.324219 23.277344 60.703125 23.785156 61.054688 24.316406 C 61.410156 24.84375 61.734375 25.390625 62.035156 25.949219 C 62.335938 26.511719 62.605469 27.085938 62.847656 27.675781 C 63.09375 28.261719 63.308594 28.859375 63.492188 29.46875 C 63.675781 30.078125 63.828125 30.695312 63.953125 31.316406 C 64.078125 31.941406 64.171875 32.570312 64.234375 33.203125 C 64.296875 33.835938 64.324219 34.472656 64.324219 35.105469 L 64.324219 76.042969 L 59.664062 76.042969 C 59.386719 76.042969 59.125 76.09375 58.871094 76.199219 C 58.617188 76.304688 58.394531 76.453125 58.199219 76.648438 C 58.003906 76.84375 57.855469 77.066406 57.75 77.320312 C 57.644531 77.574219 57.589844 77.839844 57.589844 78.113281 Z M 80.671875 85.648438 L 61.734375 85.648438 L 61.734375 80.191406 L 80.671875 80.191406 Z M 80.671875 85.648438 " fill-opacity="1" fill-rule="nonzero"/></g><path fill="#febbcc" d="M 53.394531 33.941406 C 52.691406 33.648438 51.960938 33.460938 51.203125 33.375 C 50.445312 33.289062 49.691406 33.3125 48.9375 33.441406 C 48.1875 33.574219 47.46875 33.804688 46.785156 34.140625 C 46.097656 34.472656 45.472656 34.898438 44.90625 35.410156 C 44.34375 34.898438 43.71875 34.472656 43.03125 34.140625 C 42.347656 33.804688 41.628906 33.574219 40.878906 33.441406 C 40.125 33.3125 39.371094 33.289062 38.613281 33.375 C 37.855469 33.460938 37.125 33.648438 36.421875 33.941406 C 35.15625 34.503906 34.078125 35.316406 33.183594 36.375 C 32.292969 37.433594 31.675781 38.632812 31.332031 39.972656 C 31.027344 41.160156 31 42.351562 31.242188 43.550781 C 31.484375 44.753906 31.976562 45.839844 32.71875 46.8125 C 36.140625 50.492188 39.742188 53.984375 43.523438 57.296875 C 43.714844 57.46875 43.929688 57.597656 44.167969 57.691406 C 44.40625 57.78125 44.652344 57.828125 44.90625 57.828125 C 45.164062 57.828125 45.410156 57.78125 45.648438 57.691406 C 45.886719 57.597656 46.101562 57.46875 46.292969 57.296875 C 50.070312 53.984375 53.675781 50.492188 57.097656 46.8125 C 57.835938 45.839844 58.328125 44.753906 58.574219 43.550781 C 58.816406 42.351562 58.789062 41.160156 58.484375 39.972656 C 58.140625 38.632812 57.523438 37.433594 56.632812 36.375 C 55.738281 35.316406 54.660156 34.503906 53.394531 33.941406 Z M 53.796875 44.300781 C 50.984375 47.34375 48.019531 50.238281 44.90625 52.980469 C 41.789062 50.238281 38.820312 47.34375 36 44.300781 C 35.902344 44.136719 35.808594 43.972656 35.730469 43.796875 C 35.648438 43.625 35.582031 43.449219 35.523438 43.265625 C 35.464844 43.085938 35.421875 42.902344 35.386719 42.714844 C 35.351562 42.527344 35.332031 42.335938 35.320312 42.148438 C 35.3125 41.957031 35.316406 41.769531 35.328125 41.578125 C 35.34375 41.386719 35.371094 41.199219 35.410156 41.015625 C 35.445312 40.828125 35.496094 40.644531 35.558594 40.464844 C 35.621094 40.285156 35.691406 40.109375 35.777344 39.9375 C 35.863281 39.765625 35.957031 39.601562 36.0625 39.445312 C 36.167969 39.285156 36.28125 39.132812 36.40625 38.992188 C 36.53125 38.847656 36.664062 38.710938 36.804688 38.582031 C 36.945312 38.457031 37.097656 38.339844 37.253906 38.230469 C 37.410156 38.125 37.570312 38.027344 37.742188 37.9375 C 37.910156 37.851562 38.085938 37.773438 38.261719 37.710938 C 38.441406 37.644531 38.625 37.589844 38.808594 37.550781 C 38.996094 37.507812 39.183594 37.476562 39.371094 37.460938 C 40.140625 37.5625 40.863281 37.800781 41.542969 38.171875 C 42.21875 38.546875 42.808594 39.027344 43.308594 39.621094 C 43.726562 40.125 44.261719 40.375 44.917969 40.371094 C 45.570312 40.375 46.105469 40.128906 46.523438 39.628906 C 46.550781 39.597656 49.140625 36.550781 51.6875 37.726562 C 51.996094 37.84375 52.289062 37.992188 52.566406 38.175781 C 52.84375 38.359375 53.09375 38.574219 53.324219 38.8125 C 53.550781 39.050781 53.75 39.316406 53.921875 39.601562 C 54.089844 39.886719 54.226562 40.1875 54.328125 40.5 C 54.429688 40.816406 54.496094 41.140625 54.527344 41.46875 C 54.554688 41.800781 54.550781 42.128906 54.503906 42.457031 C 54.460938 42.789062 54.378906 43.105469 54.261719 43.417969 C 54.144531 43.726562 53.996094 44.023438 53.8125 44.300781 Z M 53.796875 44.300781 " fill-opacity="1" fill-rule="nonzero"/></svg>