<svg xmlns="http://www.w3.org/2000/svg" xmlns:xlink="http://www.w3.org/1999/xlink" width="120" zoomAndPan="magnify" viewBox="0 0 90 89.999999" height="120" preserveAspectRatio="xMidYMid meet" version="1.0"><defs><clipPath id="3c4107da9c"><path d="M 34 69 L 50 69 L 50 84.542969 L 34 84.542969 Z M 34 69 " clip-rule="nonzero"/></clipPath><clipPath id="05dfd495c3"><path d="M 52 45 L 88 45 L 88 84.542969 L 52 84.542969 Z M 52 45 " clip-rule="nonzero"/></clipPath></defs><path fill="#febbcc" d="M 33.921875 41.152344 L 30.984375 40.542969 C 31.046875 40.222656 31.125 39.914062 31.203125 39.609375 C 31.363281 38.96875 31.503906 38.417969 31.503906 37.835938 C 31.503906 35.261719 29.566406 33.316406 27 33.316406 C 26.484375 33.316406 26.078125 33.402344 25.433594 33.648438 C 25.285156 33.710938 22.449219 34.890625 22.449219 34.890625 L 21.300781 32.105469 C 21.300781 32.105469 24.300781 30.855469 24.363281 30.832031 C 25.347656 30.457031 26.113281 30.300781 27 30.300781 C 31.277344 30.300781 34.503906 33.542969 34.503906 37.835938 C 34.503906 38.792969 34.296875 39.617188 34.113281 40.347656 C 34.046875 40.609375 33.980469 40.878906 33.921875 41.15625 Z M 33.921875 41.152344 " fill-opacity="1" fill-rule="nonzero"/><path fill="#febbcc" d="M 22.5 72.484375 C 17.410156 72.484375 12 68.789062 12 61.941406 C 12 59.058594 13.078125 57.171875 13.941406 55.652344 C 14.53125 54.613281 15 53.789062 15 52.902344 C 15 51.152344 13.917969 50.34375 12.007812 49.066406 C 10 47.730469 7.5 46.0625 7.5 42.355469 C 7.5 38.953125 9.042969 36.722656 12.351562 35.339844 C 12.417969 35.316406 15.585938 34.128906 15.585938 34.128906 L 16.632812 36.953125 C 16.632812 36.953125 13.640625 38.070312 13.472656 38.136719 C 11.316406 39.039062 10.5 40.183594 10.5 42.355469 C 10.5 44.347656 11.644531 45.207031 13.667969 46.558594 C 15.597656 47.847656 18 49.449219 18 52.902344 C 18 54.59375 17.261719 55.890625 16.546875 57.148438 C 15.75 58.542969 15 59.863281 15 61.941406 C 15 66.832031 18.867188 69.472656 22.503906 69.472656 C 24.894531 69.472656 26.144531 68.980469 27.464844 68.457031 L 27.96875 68.261719 L 29.035156 71.078125 L 28.5625 71.261719 C 27.183594 71.804688 25.460938 72.484375 22.5 72.484375 Z M 22.5 72.484375 " fill-opacity="1" fill-rule="nonzero"/><path fill="#febbcc" d="M 61.503906 78.515625 L 52.503906 78.515625 L 52.503906 75.5 L 61.503906 75.5 C 62.332031 75.5 63.003906 74.824219 63.003906 73.992188 L 63.003906 43.863281 C 63.003906 43.03125 62.332031 42.355469 61.503906 42.355469 L 31.5 42.355469 C 30.671875 42.355469 30 43.03125 30 43.863281 L 30 73.992188 C 30 74.824219 30.671875 75.5 31.5 75.5 L 31.5 78.515625 C 29.019531 78.515625 27 76.488281 27 73.992188 L 27 43.863281 C 27 41.371094 29.019531 39.339844 31.5 39.339844 L 61.503906 39.339844 C 63.984375 39.339844 66.003906 41.371094 66.003906 43.863281 L 66.003906 73.992188 C 66.003906 76.488281 63.984375 78.515625 61.503906 78.515625 Z M 61.503906 78.515625 " fill-opacity="1" fill-rule="nonzero"/><path fill="#febbcc" d="M 36 45.371094 L 57.003906 45.371094 L 57.003906 48.382812 L 36 48.382812 Z M 36 45.371094 " fill-opacity="1" fill-rule="nonzero"/><path fill="#febbcc" d="M 57.003906 51.394531 L 60.003906 51.394531 L 60.003906 54.410156 L 57.003906 54.410156 Z M 57.003906 51.394531 " fill-opacity="1" fill-rule="nonzero"/><path fill="#febbcc" d="M 33 51.394531 L 54.003906 51.394531 L 54.003906 54.410156 L 33 54.410156 Z M 33 51.394531 " fill-opacity="1" fill-rule="nonzero"/><path fill="#febbcc" d="M 67.503906 70.980469 C 66.023438 70.980469 64.605469 70.433594 63.503906 69.445312 L 65.503906 67.199219 C 66.054688 67.695312 66.765625 67.96875 67.503906 67.96875 C 69.15625 67.96875 70.503906 66.617188 70.503906 64.953125 C 70.503906 63.292969 69.15625 61.941406 67.503906 61.941406 C 66.765625 61.941406 66.054688 62.214844 65.503906 62.710938 L 63.503906 60.464844 C 64.605469 59.472656 66.023438 58.929688 67.503906 58.929688 C 70.8125 58.929688 73.503906 61.632812 73.503906 64.953125 C 73.503906 68.277344 70.8125 70.980469 67.503906 70.980469 Z M 67.503906 70.980469 " fill-opacity="1" fill-rule="nonzero"/><path fill="#febbcc" d="M 67.996094 60.210938 L 73.585938 47.867188 L 76.316406 49.113281 L 70.726562 61.460938 Z M 67.996094 60.210938 " fill-opacity="1" fill-rule="nonzero"/><path fill="#febbcc" d="M 71.351562 62.171875 L 84.238281 58.117188 L 85.132812 60.992188 L 72.246094 65.046875 Z M 71.351562 62.171875 " fill-opacity="1" fill-rule="nonzero"/><g clip-path="url(#3c4107da9c)"><path fill="#febbcc" d="M 42 84.539062 C 37.867188 84.539062 34.5 81.160156 34.5 77.007812 C 34.5 72.851562 37.867188 69.472656 42 69.472656 C 46.136719 69.472656 49.503906 72.851562 49.503906 77.007812 C 49.503906 81.160156 46.136719 84.539062 42 84.539062 Z M 42 72.488281 C 39.519531 72.488281 37.5 74.515625 37.5 77.007812 C 37.5 79.5 39.519531 81.527344 42 81.527344 C 44.484375 81.527344 46.503906 79.5 46.503906 77.007812 C 46.503906 74.515625 44.484375 72.488281 42 72.488281 Z M 42 72.488281 " fill-opacity="1" fill-rule="nonzero"/></g><path fill="#febbcc" d="M 58.503906 33.316406 C 54.367188 33.316406 51 29.9375 51 25.78125 C 51 21.628906 54.367188 18.25 58.503906 18.25 C 62.636719 18.25 66.003906 21.628906 66.003906 25.78125 C 66.003906 29.9375 62.636719 33.316406 58.503906 33.316406 Z M 58.503906 21.265625 C 56.019531 21.265625 54 23.292969 54 25.785156 C 54 28.277344 56.019531 30.304688 58.503906 30.304688 C 60.984375 30.304688 63.003906 28.277344 63.003906 25.785156 C 63.003906 23.292969 60.984375 21.265625 58.503906 21.265625 Z M 58.503906 21.265625 " fill-opacity="1" fill-rule="nonzero"/><path fill="#febbcc" d="M 66.003906 25.785156 L 63.003906 25.785156 C 63.003906 18.996094 63.003906 14.894531 65.242188 9.589844 C 65.726562 8.445312 66.851562 7.703125 68.101562 7.703125 C 69.210938 7.703125 70.234375 8.289062 70.777344 9.226562 C 71.941406 11.226562 72.535156 13.160156 73.058594 14.867188 C 73.683594 16.894531 74.175781 18.496094 75.386719 19.710938 L 73.261719 21.84375 C 71.527344 20.097656 70.878906 17.988281 70.195312 15.753906 C 69.691406 14.128906 69.175781 12.445312 68.1875 10.742188 L 68.007812 10.765625 C 66.003906 15.507812 66.003906 19.15625 66.003906 25.78125 Z M 66.003906 25.785156 " fill-opacity="1" fill-rule="nonzero"/><path fill="#febbcc" d="M 49.503906 77.007812 L 46.503906 77.007812 C 46.503906 70.21875 46.503906 66.117188 48.742188 60.8125 C 49.226562 59.667969 50.347656 58.925781 51.601562 58.925781 C 52.707031 58.925781 53.734375 59.511719 54.277344 60.449219 C 55.441406 62.449219 56.039062 64.386719 56.566406 66.097656 C 57.191406 68.136719 57.6875 69.746094 58.898438 70.960938 L 56.777344 73.089844 C 55.042969 71.347656 54.386719 69.230469 53.699219 66.988281 C 53.195312 65.355469 52.675781 63.667969 51.683594 61.964844 L 51.503906 61.988281 C 49.503906 66.730469 49.503906 70.378906 49.503906 77.003906 Z M 49.503906 77.007812 " fill-opacity="1" fill-rule="nonzero"/><path fill="#febbcc" d="M 79.503906 40.847656 L 76.503906 40.847656 L 76.503906 43.863281 L 79.503906 43.863281 Z M 79.503906 40.847656 " fill-opacity="1" fill-rule="nonzero"/><path fill="#febbcc" d="M 85.503906 45.371094 L 82.503906 45.371094 L 82.503906 48.382812 L 85.503906 48.382812 Z M 85.503906 45.371094 " fill-opacity="1" fill-rule="nonzero"/><path fill="#febbcc" d="M 90.003906 51.394531 L 87.003906 51.394531 L 87.003906 54.410156 L 90.003906 54.410156 Z M 90.003906 51.394531 " fill-opacity="1" fill-rule="nonzero"/><path fill="#febbcc" d="M 7.867188 53.625 C 7.183594 53.179688 6.101562 52.378906 5.285156 51.570312 L 7.390625 49.425781 C 8.003906 50.03125 8.890625 50.699219 9.496094 51.09375 Z M 2.46875 47.199219 L 2.382812 46.984375 C 1.816406 45.480469 1.519531 43.949219 1.503906 42.496094 L 4.503906 42.460938 C 4.515625 43.5625 4.746094 44.738281 5.164062 45.851562 L 5.242188 46.042969 Z M 2.46875 47.199219 " fill-opacity="1" fill-rule="nonzero"/><g clip-path="url(#05dfd495c3)"><path fill="#febbcc" d="M 67.503906 84.539062 C 61.964844 84.539062 56.667969 82.164062 52.96875 78.015625 L 55.203125 76.003906 C 58.332031 79.515625 62.8125 81.527344 67.503906 81.527344 C 76.601562 81.527344 84.003906 74.09375 84.003906 64.953125 C 84.003906 55.816406 76.601562 48.382812 67.503906 48.382812 C 66.578125 48.382812 65.652344 48.460938 64.75 48.609375 L 64.253906 45.640625 C 65.320312 45.457031 66.410156 45.367188 67.503906 45.367188 C 78.253906 45.367188 87.003906 54.15625 87.003906 64.953125 C 87.003906 75.75 78.253906 84.539062 67.503906 84.539062 Z M 67.503906 84.539062 " fill-opacity="1" fill-rule="nonzero"/></g><path fill="#febbcc" d="M 21.496094 53.222656 C 20.597656 50.855469 12.304688 30.035156 10.042969 24.363281 L 7.199219 25.558594 C 5.554688 26.214844 3.933594 25.425781 3.304688 23.957031 L 0.222656 15.976562 C 0.0820312 15.644531 0 15.246094 0 14.839844 C -0.00390625 13.605469 0.738281 12.503906 1.882812 12.039062 L 15.21875 6.421875 C 16.773438 5.792969 18.488281 6.558594 19.113281 8.023438 L 22.269531 15.972656 C 22.417969 16.3125 22.5 16.714844 22.5 17.125 C 22.496094 18.363281 21.757812 19.460938 20.613281 19.921875 L 18.359375 20.867188 L 25.566406 38.601562 L 22.789062 39.742188 L 14.457031 19.242188 L 19.476562 17.132812 L 16.339844 9.175781 L 3.023438 14.828125 L 6.082031 22.820312 L 11.695312 20.402344 L 12.261719 21.824219 C 12.710938 22.949219 23.25 49.394531 24.300781 52.148438 Z M 21.496094 53.222656 " fill-opacity="1" fill-rule="nonzero"/></svg>