<svg xmlns="http://www.w3.org/2000/svg" xmlns:xlink="http://www.w3.org/1999/xlink" width="120" zoomAndPan="magnify" viewBox="0 0 90 89.999999" height="120" preserveAspectRatio="xMidYMid meet" version="1.0"><path fill="#febbcc" d="M 23.046875 61.082031 C 23.179688 61.214844 23.332031 61.316406 23.5 61.386719 C 23.671875 61.457031 23.851562 61.492188 24.039062 61.492188 C 24.222656 61.492188 24.402344 61.457031 24.574219 61.386719 C 24.746094 61.316406 24.894531 61.214844 25.027344 61.082031 L 36.851562 49.25 C 37.265625 48.824219 37.632812 48.363281 37.957031 47.867188 C 38.28125 47.371094 38.554688 46.847656 38.773438 46.300781 C 38.996094 45.75 39.164062 45.183594 39.277344 44.605469 C 39.390625 44.023438 39.449219 43.433594 39.449219 42.84375 C 39.449219 42.25 39.390625 41.664062 39.277344 41.082031 C 39.164062 40.5 38.996094 39.933594 38.773438 39.386719 C 38.550781 38.835938 38.277344 38.3125 37.953125 37.816406 C 37.628906 37.320312 37.261719 36.859375 36.847656 36.433594 C 36.433594 36.011719 35.984375 35.628906 35.5 35.289062 C 35.011719 34.953125 34.496094 34.664062 33.957031 34.425781 C 33.414062 34.1875 32.851562 34 32.273438 33.871094 C 31.695312 33.742188 31.113281 33.667969 30.519531 33.648438 C 29.925781 33.632812 29.339844 33.671875 28.753906 33.765625 C 28.167969 33.863281 27.597656 34.015625 27.042969 34.21875 C 26.488281 34.425781 25.957031 34.683594 25.453125 34.992188 C 24.945312 35.300781 24.472656 35.65625 24.039062 36.054688 C 23.601562 35.640625 23.132812 35.269531 22.625 34.945312 C 22.117188 34.617188 21.585938 34.347656 21.023438 34.125 C 20.464844 33.90625 19.886719 33.742188 19.292969 33.636719 C 18.703125 33.53125 18.105469 33.484375 17.5 33.492188 C 16.898438 33.503906 16.304688 33.574219 15.714844 33.699219 C 15.128906 33.828125 14.558594 34.011719 14.003906 34.25 C 13.453125 34.492188 12.929688 34.78125 12.433594 35.125 C 11.9375 35.464844 11.480469 35.851562 11.0625 36.285156 C 10.640625 36.71875 10.269531 37.1875 9.941406 37.691406 C 9.613281 38.195312 9.339844 38.730469 9.117188 39.289062 C 8.894531 39.847656 8.726562 40.425781 8.617188 41.015625 C 8.507812 41.609375 8.457031 42.203125 8.464844 42.808594 C 8.472656 43.410156 8.539062 44.003906 8.660156 44.59375 C 8.785156 45.183594 8.964844 45.753906 9.203125 46.308594 C 9.441406 46.863281 9.726562 47.386719 10.066406 47.882812 C 10.40625 48.382812 10.792969 48.839844 11.222656 49.261719 Z M 13.199219 38.214844 C 13.496094 37.914062 13.820312 37.648438 14.167969 37.417969 C 14.519531 37.183594 14.886719 36.984375 15.277344 36.824219 C 15.664062 36.664062 16.066406 36.539062 16.480469 36.457031 C 16.890625 36.375 17.308594 36.335938 17.730469 36.335938 C 18.148438 36.335938 18.566406 36.375 18.980469 36.457031 C 19.390625 36.539062 19.792969 36.664062 20.179688 36.824219 C 20.570312 36.984375 20.9375 37.183594 21.289062 37.417969 C 21.640625 37.648438 21.960938 37.914062 22.257812 38.214844 L 23.046875 39 C 23.179688 39.132812 23.332031 39.234375 23.5 39.304688 C 23.671875 39.375 23.851562 39.414062 24.039062 39.414062 C 24.222656 39.414062 24.402344 39.375 24.574219 39.304688 C 24.746094 39.234375 24.894531 39.132812 25.027344 39 L 25.816406 38.214844 C 26.117188 37.925781 26.445312 37.667969 26.796875 37.441406 C 27.148438 37.21875 27.519531 37.027344 27.90625 36.871094 C 28.292969 36.714844 28.691406 36.597656 29.101562 36.519531 C 29.515625 36.441406 29.929688 36.402344 30.34375 36.402344 C 30.761719 36.402344 31.175781 36.441406 31.589844 36.519531 C 32 36.597656 32.398438 36.714844 32.785156 36.871094 C 33.171875 37.027344 33.542969 37.21875 33.894531 37.441406 C 34.246094 37.667969 34.574219 37.925781 34.875 38.214844 C 35.171875 38.511719 35.4375 38.835938 35.667969 39.1875 C 35.902344 39.535156 36.097656 39.90625 36.257812 40.292969 C 36.417969 40.683594 36.539062 41.082031 36.621094 41.496094 C 36.703125 41.90625 36.746094 42.324219 36.746094 42.746094 C 36.746094 43.164062 36.703125 43.582031 36.621094 43.992188 C 36.539062 44.40625 36.417969 44.804688 36.257812 45.195312 C 36.097656 45.582031 35.902344 45.953125 35.667969 46.304688 C 35.4375 46.652344 35.171875 46.976562 34.875 47.273438 L 24.039062 58.117188 L 13.199219 47.273438 C 12.902344 46.976562 12.636719 46.652344 12.40625 46.304688 C 12.171875 45.953125 11.976562 45.582031 11.816406 45.195312 C 11.65625 44.804688 11.535156 44.40625 11.453125 43.992188 C 11.371094 43.582031 11.332031 43.164062 11.332031 42.746094 C 11.332031 42.324219 11.371094 41.90625 11.453125 41.496094 C 11.535156 41.082031 11.65625 40.683594 11.816406 40.292969 C 11.976562 39.90625 12.171875 39.535156 12.40625 39.1875 C 12.636719 38.835938 12.902344 38.511719 13.199219 38.214844 Z M 13.199219 38.214844 " fill-opacity="1" fill-rule="nonzero"/><path fill="#febbcc" d="M 64.566406 60.53125 C 64.207031 60.234375 63.824219 59.96875 63.417969 59.742188 C 63.011719 59.511719 62.589844 59.320312 62.148438 59.171875 C 61.707031 59.019531 61.253906 58.910156 60.792969 58.839844 C 60.332031 58.773438 59.871094 58.746094 59.402344 58.761719 C 58.9375 58.777344 58.476562 58.835938 58.023438 58.9375 C 57.566406 59.039062 57.125 59.179688 56.695312 59.359375 C 56.265625 59.539062 55.855469 59.757812 55.464844 60.015625 C 55.078125 60.273438 54.714844 60.5625 54.378906 60.882812 C 54.03125 61.230469 53.71875 61.609375 53.449219 62.015625 C 53.175781 62.421875 52.945312 62.855469 52.757812 63.308594 C 52.570312 63.761719 52.429688 64.226562 52.332031 64.707031 C 52.234375 65.1875 52.1875 65.675781 52.1875 66.164062 C 52.1875 66.65625 52.234375 67.140625 52.332031 67.621094 C 52.429688 68.105469 52.570312 68.570312 52.757812 69.023438 C 52.945312 69.476562 53.175781 69.90625 53.449219 70.316406 C 53.71875 70.722656 54.03125 71.101562 54.378906 71.445312 L 63.574219 80.648438 C 63.707031 80.777344 63.859375 80.878906 64.03125 80.953125 C 64.199219 81.023438 64.378906 81.058594 64.566406 81.058594 C 64.75 81.058594 64.929688 81.023438 65.101562 80.953125 C 65.273438 80.878906 65.421875 80.777344 65.554688 80.648438 L 74.753906 71.445312 C 75.101562 71.101562 75.410156 70.722656 75.683594 70.316406 C 75.957031 69.90625 76.183594 69.476562 76.375 69.023438 C 76.5625 68.570312 76.703125 68.105469 76.796875 67.621094 C 76.894531 67.140625 76.941406 66.65625 76.941406 66.164062 C 76.941406 65.675781 76.894531 65.1875 76.796875 64.707031 C 76.703125 64.226562 76.5625 63.761719 76.375 63.308594 C 76.183594 62.855469 75.957031 62.421875 75.683594 62.015625 C 75.410156 61.609375 75.101562 61.230469 74.753906 60.882812 C 74.417969 60.5625 74.054688 60.273438 73.664062 60.015625 C 73.273438 59.761719 72.863281 59.542969 72.433594 59.359375 C 72.003906 59.179688 71.5625 59.039062 71.109375 58.9375 C 70.652344 58.839844 70.191406 58.78125 69.726562 58.765625 C 69.261719 58.746094 68.796875 58.773438 68.335938 58.84375 C 67.875 58.910156 67.421875 59.019531 66.984375 59.171875 C 66.542969 59.324219 66.117188 59.511719 65.710938 59.742188 C 65.304688 59.96875 64.921875 60.234375 64.566406 60.53125 Z M 72.777344 69.476562 L 64.566406 77.683594 L 56.351562 69.46875 C 56.136719 69.25 55.941406 69.015625 55.773438 68.757812 C 55.601562 68.503906 55.457031 68.234375 55.339844 67.949219 C 55.222656 67.667969 55.136719 67.375 55.074219 67.074219 C 55.015625 66.773438 54.984375 66.46875 54.984375 66.160156 C 54.984375 65.855469 55.015625 65.550781 55.074219 65.25 C 55.136719 64.949219 55.226562 64.65625 55.34375 64.375 C 55.460938 64.089844 55.605469 63.820312 55.773438 63.566406 C 55.945312 63.308594 56.140625 63.074219 56.355469 62.859375 C 56.574219 62.640625 56.808594 62.445312 57.066406 62.277344 C 57.320312 62.105469 57.589844 61.960938 57.871094 61.84375 C 58.15625 61.726562 58.449219 61.640625 58.75 61.578125 C 59.050781 61.519531 59.355469 61.488281 59.660156 61.488281 C 59.96875 61.488281 60.273438 61.519531 60.574219 61.578125 C 60.875 61.640625 61.167969 61.730469 61.449219 61.847656 C 61.734375 61.964844 62.003906 62.109375 62.257812 62.277344 C 62.511719 62.449219 62.75 62.644531 62.964844 62.859375 L 63.578125 63.472656 C 63.710938 63.601562 63.859375 63.703125 64.03125 63.773438 C 64.203125 63.84375 64.378906 63.878906 64.566406 63.878906 C 64.75 63.878906 64.929688 63.84375 65.097656 63.773438 C 65.269531 63.703125 65.421875 63.601562 65.550781 63.472656 L 66.164062 62.859375 C 66.382812 62.648438 66.621094 62.460938 66.878906 62.296875 C 67.136719 62.128906 67.40625 61.992188 67.6875 61.878906 C 67.972656 61.765625 68.261719 61.679688 68.5625 61.621094 C 68.863281 61.5625 69.164062 61.535156 69.46875 61.535156 C 69.773438 61.535156 70.078125 61.5625 70.375 61.621094 C 70.675781 61.679688 70.964844 61.765625 71.25 61.878906 C 71.53125 61.992188 71.800781 62.128906 72.058594 62.296875 C 72.316406 62.460938 72.554688 62.648438 72.773438 62.859375 C 72.992188 63.078125 73.183594 63.3125 73.355469 63.566406 C 73.527344 63.824219 73.671875 64.09375 73.789062 64.375 C 73.90625 64.660156 73.992188 64.953125 74.054688 65.253906 C 74.113281 65.554688 74.144531 65.855469 74.144531 66.164062 C 74.144531 66.472656 74.113281 66.773438 74.054688 67.074219 C 73.992188 67.375 73.90625 67.667969 73.789062 67.953125 C 73.671875 68.234375 73.527344 68.503906 73.355469 68.761719 C 73.183594 69.015625 72.992188 69.25 72.773438 69.46875 Z M 72.777344 69.476562 " fill-opacity="1" fill-rule="nonzero"/><path fill="#febbcc" d="M 82.734375 50.3125 L 78.539062 50.3125 L 78.539062 46.117188 C 78.539062 45.660156 78.496094 45.203125 78.40625 44.753906 C 78.316406 44.304688 78.183594 43.867188 78.007812 43.445312 C 77.832031 43.019531 77.617188 42.617188 77.363281 42.234375 C 77.109375 41.855469 76.816406 41.5 76.492188 41.175781 C 76.167969 40.851562 75.816406 40.5625 75.433594 40.308594 C 75.054688 40.054688 74.652344 39.839844 74.226562 39.664062 C 73.804688 39.488281 73.367188 39.355469 72.914062 39.265625 C 72.464844 39.175781 72.011719 39.128906 71.554688 39.128906 L 57.578125 39.128906 C 57.117188 39.128906 56.664062 39.175781 56.214844 39.265625 C 55.765625 39.355469 55.328125 39.488281 54.902344 39.664062 C 54.480469 39.839844 54.078125 40.054688 53.695312 40.308594 C 53.3125 40.5625 52.960938 40.851562 52.636719 41.175781 C 52.3125 41.5 52.023438 41.855469 51.769531 42.234375 C 51.511719 42.617188 51.296875 43.019531 51.121094 43.445312 C 50.945312 43.867188 50.8125 44.304688 50.722656 44.753906 C 50.636719 45.203125 50.589844 45.660156 50.589844 46.117188 L 50.589844 50.3125 L 47.796875 50.3125 L 47.796875 26.554688 C 47.796875 26.09375 47.75 25.640625 47.660156 25.191406 C 47.570312 24.738281 47.4375 24.300781 47.261719 23.878906 C 47.085938 23.453125 46.871094 23.050781 46.617188 22.671875 C 46.363281 22.289062 46.074219 21.9375 45.75 21.613281 C 45.425781 21.289062 45.070312 20.996094 44.691406 20.742188 C 44.308594 20.488281 43.90625 20.273438 43.480469 20.097656 C 43.058594 19.921875 42.621094 19.789062 42.171875 19.699219 C 41.71875 19.609375 41.265625 19.566406 40.808594 19.566406 L 39.410156 19.566406 L 39.410156 6.988281 C 39.410156 6.527344 39.363281 6.074219 39.277344 5.625 C 39.1875 5.175781 39.054688 4.738281 38.878906 4.3125 C 38.703125 3.890625 38.488281 3.488281 38.230469 3.105469 C 37.976562 2.722656 37.6875 2.371094 37.363281 2.046875 C 37.039062 1.722656 36.6875 1.433594 36.304688 1.175781 C 35.921875 0.921875 35.519531 0.707031 35.097656 0.53125 C 34.671875 0.355469 34.234375 0.222656 33.785156 0.132812 C 33.335938 0.0429688 32.882812 0 32.421875 0 L 15.652344 0 C 15.195312 0 14.738281 0.0429688 14.289062 0.132812 C 13.839844 0.222656 13.402344 0.355469 12.976562 0.53125 C 12.554688 0.707031 12.152344 0.921875 11.769531 1.175781 C 11.386719 1.433594 11.035156 1.722656 10.710938 2.046875 C 10.386719 2.371094 10.097656 2.722656 9.84375 3.105469 C 9.585938 3.488281 9.371094 3.890625 9.195312 4.3125 C 9.019531 4.738281 8.886719 5.175781 8.800781 5.625 C 8.710938 6.074219 8.664062 6.527344 8.664062 6.988281 L 8.664062 19.566406 L 7.265625 19.566406 C 6.808594 19.566406 6.355469 19.609375 5.902344 19.699219 C 5.453125 19.789062 5.015625 19.921875 4.59375 20.097656 C 4.167969 20.273438 3.765625 20.488281 3.386719 20.742188 C 3.003906 20.996094 2.652344 21.289062 2.324219 21.613281 C 2 21.9375 1.710938 22.289062 1.457031 22.671875 C 1.203125 23.050781 0.988281 23.453125 0.8125 23.878906 C 0.636719 24.300781 0.503906 24.738281 0.414062 25.191406 C 0.324219 25.640625 0.28125 26.09375 0.28125 26.554688 L 0.28125 74.066406 C 0.28125 74.875 0.414062 75.65625 0.683594 76.414062 C 0.957031 77.171875 1.34375 77.863281 1.855469 78.488281 C 2.363281 79.109375 2.964844 79.628906 3.652344 80.046875 C 4.339844 80.464844 5.082031 80.753906 5.871094 80.914062 L 5.871094 83.851562 C 5.871094 84.21875 5.90625 84.582031 5.976562 84.941406 C 6.046875 85.300781 6.15625 85.652344 6.296875 85.988281 C 6.4375 86.328125 6.609375 86.652344 6.8125 86.957031 C 7.015625 87.261719 7.246094 87.542969 7.507812 87.804688 C 7.765625 88.0625 8.046875 88.296875 8.355469 88.5 C 8.660156 88.703125 8.980469 88.875 9.320312 89.015625 C 9.660156 89.15625 10.007812 89.261719 10.367188 89.332031 C 10.730469 89.40625 11.09375 89.441406 11.460938 89.441406 C 11.828125 89.441406 12.191406 89.40625 12.550781 89.332031 C 12.910156 89.261719 13.257812 89.15625 13.597656 89.015625 C 13.9375 88.875 14.261719 88.703125 14.566406 88.5 C 14.871094 88.296875 15.152344 88.0625 15.414062 87.804688 C 15.671875 87.542969 15.902344 87.261719 16.109375 86.957031 C 16.3125 86.652344 16.484375 86.328125 16.625 85.988281 C 16.765625 85.652344 16.871094 85.300781 16.941406 84.941406 C 17.015625 84.582031 17.050781 84.21875 17.050781 83.851562 L 17.050781 81.054688 L 31.023438 81.054688 L 31.023438 83.851562 C 31.027344 84.445312 31.121094 85.023438 31.304688 85.585938 C 31.492188 86.148438 31.761719 86.667969 32.113281 87.144531 C 32.460938 87.621094 32.878906 88.035156 33.359375 88.378906 C 33.84375 88.722656 34.367188 88.984375 34.933594 89.164062 C 35.496094 89.34375 36.078125 89.429688 36.667969 89.421875 C 37.261719 89.417969 37.839844 89.320312 38.402344 89.128906 C 38.960938 88.941406 39.480469 88.667969 39.957031 88.316406 C 40.433594 87.960938 40.839844 87.542969 41.183594 87.058594 C 41.839844 87.8125 42.621094 88.398438 43.53125 88.8125 C 44.441406 89.230469 45.398438 89.4375 46.398438 89.441406 L 82.734375 89.441406 C 83.191406 89.441406 83.644531 89.394531 84.097656 89.308594 C 84.546875 89.21875 84.984375 89.085938 85.40625 88.910156 C 85.832031 88.734375 86.234375 88.519531 86.613281 88.261719 C 86.996094 88.007812 87.347656 87.71875 87.675781 87.394531 C 88 87.070312 88.289062 86.71875 88.542969 86.335938 C 88.796875 85.953125 89.011719 85.550781 89.1875 85.128906 C 89.363281 84.703125 89.496094 84.265625 89.585938 83.816406 C 89.675781 83.367188 89.71875 82.914062 89.71875 82.453125 L 89.71875 57.296875 C 89.71875 56.839844 89.675781 56.386719 89.585938 55.933594 C 89.496094 55.484375 89.363281 55.046875 89.1875 54.625 C 89.011719 54.199219 88.796875 53.796875 88.542969 53.417969 C 88.289062 53.035156 88 52.679688 87.675781 52.355469 C 87.347656 52.03125 86.996094 51.742188 86.613281 51.488281 C 86.234375 51.234375 85.832031 51.019531 85.40625 50.84375 C 84.984375 50.667969 84.546875 50.535156 84.097656 50.445312 C 83.644531 50.355469 83.191406 50.3125 82.734375 50.3125 Z M 78.539062 85.25 L 78.539062 86.644531 L 50.589844 86.644531 L 50.589844 85.25 C 50.589844 84.789062 50.546875 84.335938 50.457031 83.886719 C 50.367188 83.433594 50.234375 83 50.058594 82.574219 C 49.882812 82.152344 49.667969 81.746094 49.414062 81.367188 C 49.15625 80.984375 48.867188 80.632812 48.542969 80.308594 C 48.21875 79.984375 47.867188 79.695312 47.484375 79.4375 C 47.101562 79.183594 46.699219 78.96875 46.277344 78.792969 C 45.851562 78.617188 45.414062 78.484375 44.964844 78.394531 C 44.515625 78.304688 44.0625 78.261719 43.601562 78.261719 L 42.203125 78.261719 L 42.203125 61.492188 L 43.601562 61.492188 C 44.0625 61.492188 44.515625 61.445312 44.964844 61.355469 C 45.414062 61.265625 45.851562 61.132812 46.277344 60.957031 C 46.699219 60.785156 47.101562 60.566406 47.484375 60.3125 C 47.867188 60.058594 48.21875 59.769531 48.542969 59.445312 C 48.867188 59.121094 49.15625 58.765625 49.414062 58.386719 C 49.667969 58.003906 49.882812 57.601562 50.058594 57.175781 C 50.234375 56.753906 50.367188 56.316406 50.457031 55.867188 C 50.546875 55.417969 50.589844 54.960938 50.589844 54.503906 L 50.589844 53.105469 L 78.539062 53.105469 L 78.539062 54.503906 C 78.539062 54.960938 78.585938 55.417969 78.675781 55.867188 C 78.765625 56.316406 78.898438 56.753906 79.070312 57.175781 C 79.246094 57.601562 79.464844 58.003906 79.71875 58.386719 C 79.972656 58.765625 80.261719 59.121094 80.585938 59.445312 C 80.910156 59.769531 81.265625 60.058594 81.644531 60.3125 C 82.027344 60.566406 82.429688 60.785156 82.855469 60.957031 C 83.277344 61.132812 83.714844 61.265625 84.164062 61.355469 C 84.613281 61.445312 85.070312 61.492188 85.527344 61.492188 L 86.925781 61.492188 L 86.925781 78.261719 L 85.527344 78.261719 C 85.070312 78.261719 84.613281 78.304688 84.164062 78.394531 C 83.714844 78.484375 83.277344 78.617188 82.855469 78.792969 C 82.429688 78.96875 82.027344 79.183594 81.644531 79.4375 C 81.265625 79.695312 80.910156 79.984375 80.585938 80.308594 C 80.261719 80.632812 79.972656 80.984375 79.71875 81.367188 C 79.464844 81.746094 79.246094 82.152344 79.070312 82.574219 C 78.898438 83 78.765625 83.433594 78.675781 83.886719 C 78.585938 84.335938 78.539062 84.789062 78.539062 85.25 Z M 47.796875 53.105469 L 47.796875 54.503906 C 47.796875 54.777344 47.769531 55.050781 47.714844 55.320312 C 47.660156 55.589844 47.582031 55.851562 47.476562 56.109375 C 47.371094 56.363281 47.242188 56.601562 47.089844 56.832031 C 46.933594 57.0625 46.761719 57.273438 46.566406 57.46875 C 46.371094 57.664062 46.160156 57.835938 45.933594 57.988281 C 45.703125 58.140625 45.460938 58.269531 45.207031 58.375 C 44.953125 58.480469 44.691406 58.5625 44.421875 58.613281 C 44.152344 58.667969 43.878906 58.695312 43.601562 58.695312 L 42.203125 58.695312 L 42.203125 57.296875 C 42.203125 57.023438 42.230469 56.75 42.285156 56.480469 C 42.339844 56.210938 42.417969 55.949219 42.523438 55.695312 C 42.628906 55.4375 42.757812 55.199219 42.910156 54.96875 C 43.066406 54.738281 43.238281 54.527344 43.433594 54.332031 C 43.628906 54.140625 43.839844 53.964844 44.066406 53.8125 C 44.296875 53.660156 44.539062 53.53125 44.792969 53.425781 C 45.046875 53.320312 45.308594 53.238281 45.578125 53.1875 C 45.847656 53.132812 46.121094 53.105469 46.398438 53.105469 Z M 86.925781 57.296875 L 86.925781 58.695312 L 85.527344 58.695312 C 85.253906 58.695312 84.980469 58.667969 84.710938 58.613281 C 84.441406 58.5625 84.179688 58.480469 83.921875 58.375 C 83.667969 58.269531 83.425781 58.140625 83.199219 57.988281 C 82.96875 57.835938 82.757812 57.664062 82.5625 57.46875 C 82.367188 57.273438 82.195312 57.0625 82.042969 56.832031 C 81.890625 56.601562 81.761719 56.363281 81.65625 56.109375 C 81.550781 55.851562 81.46875 55.589844 81.414062 55.320312 C 81.363281 55.050781 81.335938 54.777344 81.335938 54.503906 L 81.335938 53.105469 L 82.734375 53.105469 C 83.007812 53.105469 83.28125 53.132812 83.550781 53.1875 C 83.820312 53.238281 84.082031 53.320312 84.335938 53.425781 C 84.589844 53.53125 84.832031 53.660156 85.0625 53.8125 C 85.292969 53.964844 85.503906 54.140625 85.699219 54.332031 C 85.890625 54.527344 86.066406 54.738281 86.21875 54.96875 C 86.371094 55.199219 86.5 55.4375 86.605469 55.695312 C 86.710938 55.949219 86.792969 56.210938 86.84375 56.480469 C 86.898438 56.75 86.925781 57.023438 86.925781 57.296875 Z M 53.386719 46.117188 C 53.386719 45.84375 53.410156 45.570312 53.464844 45.300781 C 53.519531 45.03125 53.597656 44.769531 53.703125 44.511719 C 53.808594 44.257812 53.9375 44.019531 54.089844 43.789062 C 54.246094 43.558594 54.417969 43.347656 54.613281 43.152344 C 54.808594 42.957031 55.019531 42.785156 55.25 42.632812 C 55.476562 42.480469 55.71875 42.351562 55.972656 42.246094 C 56.226562 42.140625 56.488281 42.058594 56.757812 42.007812 C 57.03125 41.953125 57.300781 41.925781 57.578125 41.925781 L 71.554688 41.925781 C 71.828125 41.925781 72.101562 41.953125 72.371094 42.007812 C 72.640625 42.058594 72.902344 42.140625 73.15625 42.246094 C 73.410156 42.351562 73.652344 42.480469 73.882812 42.632812 C 74.109375 42.785156 74.324219 42.957031 74.515625 43.152344 C 74.710938 43.347656 74.886719 43.558594 75.039062 43.789062 C 75.191406 44.019531 75.320312 44.257812 75.425781 44.511719 C 75.53125 44.769531 75.609375 45.03125 75.664062 45.300781 C 75.71875 45.570312 75.746094 45.84375 75.746094 46.117188 L 75.746094 50.3125 L 53.386719 50.3125 Z M 11.460938 6.988281 C 11.460938 6.710938 11.488281 6.441406 11.539062 6.167969 C 11.59375 5.898438 11.671875 5.636719 11.777344 5.382812 C 11.882812 5.128906 12.011719 4.886719 12.167969 4.660156 C 12.320312 4.429688 12.492188 4.21875 12.6875 4.023438 C 12.882812 3.828125 13.09375 3.65625 13.324219 3.5 C 13.550781 3.347656 13.792969 3.21875 14.046875 3.113281 C 14.300781 3.007812 14.5625 2.929688 14.835938 2.875 C 15.105469 2.820312 15.375 2.796875 15.652344 2.796875 L 32.421875 2.796875 C 32.699219 2.796875 32.96875 2.820312 33.242188 2.875 C 33.511719 2.929688 33.773438 3.007812 34.027344 3.113281 C 34.28125 3.21875 34.523438 3.347656 34.75 3.5 C 34.980469 3.65625 35.191406 3.828125 35.386719 4.023438 C 35.582031 4.21875 35.753906 4.429688 35.910156 4.660156 C 36.0625 4.886719 36.191406 5.128906 36.296875 5.382812 C 36.402344 5.636719 36.480469 5.898438 36.535156 6.167969 C 36.589844 6.441406 36.613281 6.710938 36.613281 6.988281 L 36.613281 19.566406 L 11.460938 19.566406 Z M 7.265625 22.359375 L 40.808594 22.359375 C 41.082031 22.359375 41.355469 22.386719 41.625 22.441406 C 41.894531 22.496094 42.15625 22.574219 42.410156 22.679688 C 42.667969 22.785156 42.90625 22.914062 43.136719 23.066406 C 43.367188 23.21875 43.578125 23.394531 43.773438 23.589844 C 43.964844 23.78125 44.140625 23.996094 44.292969 24.222656 C 44.445312 24.453125 44.574219 24.695312 44.679688 24.949219 C 44.785156 25.203125 44.867188 25.464844 44.917969 25.734375 C 44.972656 26.003906 45 26.277344 45 26.554688 L 45 50.449219 C 44.570312 50.539062 44.15625 50.667969 43.753906 50.839844 C 43.628906 50.890625 43.511719 50.960938 43.390625 51.019531 C 43.128906 51.140625 42.875 51.277344 42.628906 51.429688 C 42.488281 51.519531 42.363281 51.621094 42.234375 51.710938 C 42.027344 51.863281 41.824219 52.027344 41.636719 52.207031 C 41.507812 52.324219 41.390625 52.445312 41.273438 52.570312 C 41.105469 52.757812 40.945312 52.953125 40.792969 53.160156 C 40.691406 53.296875 40.589844 53.4375 40.496094 53.582031 C 40.359375 53.804688 40.238281 54.03125 40.125 54.265625 C 40.054688 54.417969 39.976562 54.5625 39.914062 54.722656 C 39.808594 54.996094 39.722656 55.273438 39.65625 55.558594 C 39.621094 55.699219 39.570312 55.839844 39.542969 55.976562 C 39.457031 56.414062 39.414062 56.851562 39.410156 57.296875 L 39.410156 67.082031 L 3.074219 67.082031 L 3.074219 26.554688 C 3.074219 26.277344 3.101562 26.003906 3.15625 25.734375 C 3.207031 25.464844 3.289062 25.203125 3.394531 24.949219 C 3.5 24.695312 3.628906 24.453125 3.78125 24.222656 C 3.933594 23.996094 4.109375 23.78125 4.300781 23.589844 C 4.496094 23.394531 4.707031 23.21875 4.9375 23.066406 C 5.167969 22.914062 5.410156 22.785156 5.664062 22.679688 C 5.917969 22.574219 6.179688 22.496094 6.449219 22.441406 C 6.71875 22.386719 6.992188 22.359375 7.265625 22.359375 Z M 3.074219 74.066406 L 3.074219 69.875 L 39.410156 69.875 L 39.410156 78.261719 L 7.265625 78.261719 C 6.992188 78.261719 6.71875 78.234375 6.449219 78.179688 C 6.179688 78.125 5.917969 78.046875 5.664062 77.941406 C 5.410156 77.835938 5.167969 77.707031 4.9375 77.554688 C 4.707031 77.402344 4.496094 77.226562 4.300781 77.03125 C 4.109375 76.839844 3.933594 76.625 3.78125 76.398438 C 3.628906 76.167969 3.5 75.925781 3.394531 75.671875 C 3.289062 75.417969 3.207031 75.15625 3.15625 74.886719 C 3.101562 74.617188 3.074219 74.34375 3.074219 74.066406 Z M 14.253906 83.851562 C 14.253906 84.222656 14.183594 84.578125 14.042969 84.921875 C 13.898438 85.261719 13.699219 85.566406 13.4375 85.828125 C 13.175781 86.089844 12.871094 86.292969 12.527344 86.433594 C 12.1875 86.574219 11.832031 86.644531 11.460938 86.644531 C 11.089844 86.644531 10.734375 86.574219 10.390625 86.433594 C 10.046875 86.292969 9.746094 86.089844 9.484375 85.828125 C 9.222656 85.566406 9.019531 85.261719 8.878906 84.921875 C 8.734375 84.578125 8.664062 84.222656 8.664062 83.851562 L 8.664062 81.054688 L 14.253906 81.054688 Z M 39.410156 83.851562 C 39.410156 84.222656 39.339844 84.578125 39.195312 84.921875 C 39.054688 85.261719 38.851562 85.566406 38.589844 85.828125 C 38.328125 86.089844 38.027344 86.292969 37.683594 86.433594 C 37.34375 86.574219 36.984375 86.644531 36.613281 86.644531 C 36.246094 86.644531 35.886719 86.574219 35.546875 86.433594 C 35.203125 86.292969 34.902344 86.089844 34.636719 85.828125 C 34.375 85.566406 34.175781 85.261719 34.03125 84.921875 C 33.890625 84.578125 33.820312 84.222656 33.820312 83.851562 L 33.820312 81.054688 L 39.410156 81.054688 Z M 42.203125 82.453125 L 42.203125 81.054688 L 43.601562 81.054688 C 43.878906 81.054688 44.152344 81.082031 44.421875 81.136719 C 44.691406 81.191406 44.953125 81.269531 45.207031 81.375 C 45.460938 81.480469 45.703125 81.609375 45.933594 81.761719 C 46.160156 81.914062 46.371094 82.089844 46.566406 82.285156 C 46.761719 82.480469 46.933594 82.691406 47.089844 82.917969 C 47.242188 83.148438 47.371094 83.390625 47.476562 83.644531 C 47.582031 83.898438 47.660156 84.160156 47.714844 84.429688 C 47.769531 84.699219 47.796875 84.972656 47.796875 85.25 L 47.796875 86.644531 L 46.398438 86.644531 C 46.121094 86.644531 45.847656 86.617188 45.578125 86.566406 C 45.308594 86.511719 45.046875 86.433594 44.792969 86.328125 C 44.539062 86.222656 44.296875 86.09375 44.066406 85.9375 C 43.839844 85.785156 43.628906 85.613281 43.433594 85.417969 C 43.238281 85.222656 43.066406 85.011719 42.910156 84.78125 C 42.757812 84.554688 42.628906 84.3125 42.523438 84.058594 C 42.417969 83.804688 42.339844 83.542969 42.285156 83.269531 C 42.230469 83 42.203125 82.730469 42.203125 82.453125 Z M 82.734375 86.644531 L 81.335938 86.644531 L 81.335938 85.25 C 81.335938 84.972656 81.363281 84.699219 81.414062 84.429688 C 81.46875 84.160156 81.550781 83.898438 81.65625 83.644531 C 81.761719 83.390625 81.890625 83.148438 82.042969 82.917969 C 82.195312 82.691406 82.367188 82.480469 82.5625 82.285156 C 82.757812 82.089844 82.96875 81.914062 83.199219 81.761719 C 83.425781 81.609375 83.667969 81.480469 83.921875 81.375 C 84.179688 81.269531 84.441406 81.191406 84.710938 81.136719 C 84.980469 81.082031 85.253906 81.054688 85.527344 81.054688 L 86.925781 81.054688 L 86.925781 82.453125 C 86.925781 82.730469 86.898438 83 86.84375 83.269531 C 86.792969 83.542969 86.710938 83.804688 86.605469 84.058594 C 86.5 84.3125 86.371094 84.554688 86.21875 84.78125 C 86.066406 85.011719 85.890625 85.222656 85.699219 85.417969 C 85.503906 85.613281 85.292969 85.785156 85.0625 85.9375 C 84.832031 86.09375 84.589844 86.222656 84.335938 86.328125 C 84.082031 86.433594 83.820312 86.511719 83.550781 86.566406 C 83.28125 86.617188 83.007812 86.644531 82.734375 86.644531 Z M 82.734375 86.644531 " fill-opacity="1" fill-rule="nonzero"/></svg>