<svg xmlns="http://www.w3.org/2000/svg" xmlns:xlink="http://www.w3.org/1999/xlink" width="120" zoomAndPan="magnify" viewBox="0 0 90 89.999999" height="120" preserveAspectRatio="xMidYMid meet" version="1.0"><defs><clipPath id="9108b03c65"><path d="M 0 25.648438 L 90 25.648438 L 90 64.648438 L 0 64.648438 Z M 0 25.648438 " clip-rule="nonzero"/></clipPath></defs><path fill="#febbcc" d="M 23.585938 60.402344 C 22.871094 60.402344 22.289062 59.816406 22.289062 59.09375 C 22.289062 58.371094 22.871094 57.78125 23.585938 57.78125 C 24.304688 57.78125 24.886719 58.371094 24.886719 59.09375 C 24.886719 59.816406 24.304688 60.402344 23.585938 60.402344 Z M 23.585938 56.34375 C 22.082031 56.34375 20.859375 57.578125 20.859375 59.09375 C 20.859375 60.609375 22.082031 61.84375 23.585938 61.84375 C 25.089844 61.84375 26.316406 60.609375 26.316406 59.09375 C 26.316406 57.578125 25.089844 56.34375 23.585938 56.34375 " fill-opacity="1" fill-rule="nonzero"/><path fill="#febbcc" d="M 66.414062 60.402344 C 65.695312 60.402344 65.113281 59.816406 65.113281 59.09375 C 65.113281 58.371094 65.695312 57.78125 66.414062 57.78125 C 67.128906 57.78125 67.710938 58.371094 67.710938 59.09375 C 67.710938 59.816406 67.128906 60.402344 66.414062 60.402344 Z M 66.414062 56.34375 C 64.910156 56.34375 63.683594 57.578125 63.683594 59.09375 C 63.683594 60.609375 64.910156 61.84375 66.414062 61.84375 C 67.917969 61.84375 69.140625 60.609375 69.140625 59.09375 C 69.140625 57.578125 67.917969 56.34375 66.414062 56.34375 " fill-opacity="1" fill-rule="nonzero"/><g clip-path="url(#9108b03c65)"><path fill="#febbcc" d="M 88.53125 49.402344 L 88.53125 55.015625 L 87.328125 55.015625 C 86.621094 55.015625 86.050781 54.4375 86.050781 53.726562 L 86.050781 52.542969 C 86.050781 51.011719 87.109375 49.730469 88.53125 49.402344 Z M 85.691406 60.292969 L 71.785156 60.292969 C 71.867188 59.90625 71.914062 59.503906 71.914062 59.09375 C 71.914062 56.035156 69.445312 53.546875 66.414062 53.546875 C 63.378906 53.546875 60.910156 56.035156 60.910156 59.09375 C 60.910156 59.503906 60.957031 59.90625 61.042969 60.292969 L 28.957031 60.292969 C 29.042969 59.90625 29.089844 59.503906 29.089844 59.09375 C 29.089844 56.035156 26.621094 53.546875 23.585938 53.546875 C 20.554688 53.546875 18.085938 56.035156 18.085938 59.09375 C 18.085938 59.503906 18.132812 59.90625 18.214844 60.292969 L 5.738281 60.292969 C 3.121094 60.292969 1.671875 58.722656 1.488281 57.066406 C 4.496094 56.832031 6.007812 55.683594 6.226562 53.484375 C 6.277344 52.964844 6.09375 52.457031 5.71875 52.09375 C 5.351562 51.734375 4.847656 51.566406 4.339844 51.632812 C 3.210938 51.789062 2.230469 52.011719 1.546875 52.191406 C 1.566406 51.953125 1.589844 51.691406 1.613281 51.414062 C 5.144531 50.714844 5.464844 47.957031 5.933594 43.882812 L 5.984375 43.433594 C 6.164062 41.871094 6.386719 40.398438 6.582031 39.097656 C 7.179688 35.085938 7.574219 32.4375 6.40625 31.074219 C 6.121094 30.738281 5.757812 30.507812 5.324219 30.371094 C 5.761719 29.300781 6.132812 28.785156 6.382812 28.542969 C 6.832031 28.101562 8.140625 27.082031 10.59375 27.082031 L 84.414062 27.082031 C 88.042969 27.082031 88.484375 29.894531 88.53125 30.324219 L 88.53125 47.9375 C 86.320312 48.285156 84.621094 50.21875 84.621094 52.542969 L 84.621094 53.726562 C 84.621094 55.230469 85.835938 56.457031 87.328125 56.457031 L 88.53125 56.457031 L 88.53125 57.429688 C 88.53125 58.289062 88.253906 60.292969 85.691406 60.292969 Z M 66.414062 63.199219 C 64.164062 63.199219 62.335938 61.359375 62.335938 59.09375 C 62.335938 56.828125 64.164062 54.984375 66.414062 54.984375 C 68.660156 54.984375 70.488281 56.828125 70.488281 59.09375 C 70.488281 61.359375 68.660156 63.199219 66.414062 63.199219 Z M 23.585938 63.199219 C 21.339844 63.199219 19.511719 61.359375 19.511719 59.09375 C 19.511719 56.828125 21.339844 54.984375 23.585938 54.984375 C 25.835938 54.984375 27.664062 56.828125 27.664062 59.09375 C 27.664062 61.359375 25.835938 63.199219 23.585938 63.199219 Z M 4.835938 31.726562 C 5.101562 31.792969 5.242188 31.914062 5.324219 32.011719 C 6.066406 32.875 5.648438 35.660156 5.167969 38.882812 C 4.972656 40.195312 4.75 41.679688 4.566406 43.265625 L 4.515625 43.71875 C 4.050781 47.742188 3.761719 49.347656 1.75 49.90625 C 2.089844 46.433594 3.128906 37.046875 4.835938 31.726562 Z M 1.46875 53.707031 C 2.074219 53.53125 3.203125 53.242188 4.53125 53.058594 C 4.628906 53.046875 4.695312 53.097656 4.726562 53.128906 C 4.761719 53.160156 4.816406 53.234375 4.808594 53.339844 C 4.734375 54.0625 4.601562 55.359375 1.46875 55.625 Z M 89.957031 30.230469 C 89.824219 28.644531 88.496094 25.640625 84.414062 25.640625 L 10.59375 25.640625 C 7.617188 25.640625 5.960938 26.949219 5.386719 27.511719 C 4.773438 28.113281 4.210938 29.164062 3.667969 30.714844 C 1.597656 36.652344 0.449219 48.425781 0.238281 50.726562 C 0.148438 51.738281 0.078125 52.628906 0.0546875 53.109375 C 0.0546875 53.113281 0.0546875 53.117188 0.0546875 53.125 C 0.0429688 53.261719 0.0390625 53.363281 0.0390625 53.421875 L 0.0390625 56.710938 C 0.0390625 59.144531 2.039062 61.730469 5.738281 61.730469 L 18.75 61.730469 C 19.679688 63.460938 21.5 64.640625 23.585938 64.640625 C 25.675781 64.640625 27.492188 63.460938 28.425781 61.730469 L 61.574219 61.730469 C 62.507812 63.460938 64.324219 64.640625 66.414062 64.640625 C 68.5 64.640625 70.320312 63.460938 71.25 61.730469 L 85.691406 61.730469 C 88.839844 61.730469 89.960938 59.414062 89.960938 57.429688 L 89.960938 30.289062 C 89.960938 30.269531 89.957031 30.25 89.957031 30.230469 " fill-opacity="1" fill-rule="nonzero"/></g><path fill="#febbcc" d="M 23.945312 39.761719 C 23.945312 48.300781 15.554688 50.742188 11.949219 51.398438 C 11.664062 51.449219 11.464844 51.324219 11.367188 51.242188 C 11.207031 51.105469 11.113281 50.902344 11.113281 50.6875 L 11.113281 32.148438 C 11.113281 31.75 11.433594 31.425781 11.828125 31.425781 L 23.234375 31.425781 C 23.628906 31.425781 23.945312 31.75 23.945312 32.148438 Z M 23.234375 29.988281 L 11.828125 29.988281 C 10.644531 29.988281 9.683594 30.957031 9.683594 32.148438 L 9.683594 50.6875 C 9.683594 51.332031 9.964844 51.9375 10.453125 52.347656 C 10.839844 52.675781 11.324219 52.847656 11.820312 52.847656 C 11.945312 52.847656 12.074219 52.835938 12.203125 52.8125 C 16.160156 52.09375 25.375 49.382812 25.375 39.761719 L 25.375 32.148438 C 25.375 30.957031 24.414062 29.988281 23.234375 29.988281 " fill-opacity="1" fill-rule="nonzero"/><path fill="#febbcc" d="M 84.40625 44.527344 C 84.40625 44.921875 84.085938 45.246094 83.691406 45.246094 L 71.792969 45.246094 L 71.792969 31.761719 L 83.691406 31.761719 C 84.085938 31.761719 84.40625 32.082031 84.40625 32.480469 Z M 29.664062 44.527344 L 29.664062 32.480469 C 29.664062 32.082031 29.984375 31.761719 30.378906 31.761719 L 42.28125 31.761719 L 42.28125 45.246094 L 30.378906 45.246094 C 29.984375 45.246094 29.664062 44.921875 29.664062 44.527344 Z M 56.324219 45.246094 L 43.707031 45.246094 L 43.707031 31.761719 L 56.324219 31.761719 Z M 57.75 31.761719 L 70.363281 31.761719 L 70.363281 45.246094 L 57.75 45.246094 Z M 85.835938 44.527344 L 85.835938 32.480469 C 85.835938 31.289062 84.875 30.320312 83.691406 30.320312 L 30.378906 30.320312 C 29.199219 30.320312 28.238281 31.289062 28.238281 32.480469 L 28.238281 44.527344 C 28.238281 45.714844 29.199219 46.683594 30.378906 46.683594 L 83.691406 46.683594 C 84.875 46.683594 85.835938 45.714844 85.835938 44.527344 " fill-opacity="1" fill-rule="nonzero"/></svg>