<svg xmlns="http://www.w3.org/2000/svg" xmlns:xlink="http://www.w3.org/1999/xlink" width="1000" zoomAndPan="magnify" viewBox="0 0 750 5999.999899" height="8000" preserveAspectRatio="xMidYMid meet" version="1.0"><defs><clipPath id="1828d2d4ff"><path d="M 262.5 5865.378906 L 297.875 5865.378906 L 297.875 5900.753906 L 262.5 5900.753906 Z M 262.5 5865.378906 " clip-rule="nonzero"/></clipPath><clipPath id="cf30df06cd"><path d="M 280.1875 5865.378906 L 297.875 5883.066406 L 280.1875 5900.753906 L 262.5 5883.066406 L 280.1875 5865.378906 " clip-rule="nonzero"/></clipPath><clipPath id="d38929cd81"><path d="M 262.5 5900.753906 L 297.875 5900.753906 L 297.875 5936.128906 L 262.5 5936.128906 Z M 262.5 5900.753906 " clip-rule="nonzero"/></clipPath><clipPath id="68beba1a06"><path d="M 280.1875 5900.753906 L 297.875 5918.441406 L 280.1875 5936.128906 L 262.5 5918.441406 L 280.1875 5900.753906 " clip-rule="nonzero"/></clipPath><clipPath id="ffb986e617"><path d="M 262.5 5299.378906 L 297.875 5299.378906 L 297.875 5334.753906 L 262.5 5334.753906 Z M 262.5 5299.378906 " clip-rule="nonzero"/></clipPath><clipPath id="afad43c194"><path d="M 280.1875 5299.378906 L 297.875 5317.066406 L 280.1875 5334.753906 L 262.5 5317.066406 L 280.1875 5299.378906 " clip-rule="nonzero"/></clipPath><clipPath id="85037ce87c"><path d="M 262.5 5334.753906 L 297.875 5334.753906 L 297.875 5370.128906 L 262.5 5370.128906 Z M 262.5 5334.753906 " clip-rule="nonzero"/></clipPath><clipPath id="87b70587d0"><path d="M 280.1875 5334.753906 L 297.875 5352.441406 L 280.1875 5370.128906 L 262.5 5352.441406 L 280.1875 5334.753906 " clip-rule="nonzero"/></clipPath><clipPath id="61c32006c2"><path d="M 262.5 5370.128906 L 297.875 5370.128906 L 297.875 5405.503906 L 262.5 5405.503906 Z M 262.5 5370.128906 " clip-rule="nonzero"/></clipPath><clipPath id="702cc433a3"><path d="M 280.1875 5370.128906 L 297.875 5387.816406 L 280.1875 5405.503906 L 262.5 5387.816406 L 280.1875 5370.128906 " clip-rule="nonzero"/></clipPath><clipPath id="286e92994b"><path d="M 262.5 5405.503906 L 297.875 5405.503906 L 297.875 5440.878906 L 262.5 5440.878906 Z M 262.5 5405.503906 " clip-rule="nonzero"/></clipPath><clipPath id="bba8ec45d3"><path d="M 280.1875 5405.503906 L 297.875 5423.191406 L 280.1875 5440.878906 L 262.5 5423.191406 L 280.1875 5405.503906 " clip-rule="nonzero"/></clipPath><clipPath id="a2d3274005"><path d="M 262.5 5440.878906 L 297.875 5440.878906 L 297.875 5476.253906 L 262.5 5476.253906 Z M 262.5 5440.878906 " clip-rule="nonzero"/></clipPath><clipPath id="43a63b367f"><path d="M 280.1875 5440.878906 L 297.875 5458.566406 L 280.1875 5476.253906 L 262.5 5458.566406 L 280.1875 5440.878906 " clip-rule="nonzero"/></clipPath><clipPath id="a7df60c132"><path d="M 262.5 5476.253906 L 297.875 5476.253906 L 297.875 5511.628906 L 262.5 5511.628906 Z M 262.5 5476.253906 " clip-rule="nonzero"/></clipPath><clipPath id="76b0e1a886"><path d="M 280.1875 5476.253906 L 297.875 5493.941406 L 280.1875 5511.628906 L 262.5 5493.941406 L 280.1875 5476.253906 " clip-rule="nonzero"/></clipPath><clipPath id="766885dc7c"><path d="M 262.5 5511.628906 L 297.875 5511.628906 L 297.875 5547.003906 L 262.5 5547.003906 Z M 262.5 5511.628906 " clip-rule="nonzero"/></clipPath><clipPath id="1e42192ac2"><path d="M 280.1875 5511.628906 L 297.875 5529.316406 L 280.1875 5547.003906 L 262.5 5529.316406 L 280.1875 5511.628906 " clip-rule="nonzero"/></clipPath><clipPath id="c40a8be5f1"><path d="M 262.5 5547.003906 L 297.875 5547.003906 L 297.875 5582.378906 L 262.5 5582.378906 Z M 262.5 5547.003906 " clip-rule="nonzero"/></clipPath><clipPath id="587b94af30"><path d="M 280.1875 5547.003906 L 297.875 5564.691406 L 280.1875 5582.378906 L 262.5 5564.691406 L 280.1875 5547.003906 " clip-rule="nonzero"/></clipPath><clipPath id="25381b0edc"><path d="M 262.5 5582.378906 L 297.875 5582.378906 L 297.875 5617.753906 L 262.5 5617.753906 Z M 262.5 5582.378906 " clip-rule="nonzero"/></clipPath><clipPath id="5e480e51f6"><path d="M 280.1875 5582.378906 L 297.875 5600.066406 L 280.1875 5617.753906 L 262.5 5600.066406 L 280.1875 5582.378906 " clip-rule="nonzero"/></clipPath><clipPath id="6defbb993e"><path d="M 262.5 5617.753906 L 297.875 5617.753906 L 297.875 5653.128906 L 262.5 5653.128906 Z M 262.5 5617.753906 " clip-rule="nonzero"/></clipPath><clipPath id="2ab895cd5f"><path d="M 280.1875 5617.753906 L 297.875 5635.441406 L 280.1875 5653.128906 L 262.5 5635.441406 L 280.1875 5617.753906 " clip-rule="nonzero"/></clipPath><clipPath id="4cc1938d42"><path d="M 262.5 5653.128906 L 297.875 5653.128906 L 297.875 5688.503906 L 262.5 5688.503906 Z M 262.5 5653.128906 " clip-rule="nonzero"/></clipPath><clipPath id="d0629d1753"><path d="M 280.1875 5653.128906 L 297.875 5670.816406 L 280.1875 5688.503906 L 262.5 5670.816406 L 280.1875 5653.128906 " clip-rule="nonzero"/></clipPath><clipPath id="2609b2f61e"><path d="M 262.5 5688.503906 L 297.875 5688.503906 L 297.875 5723.878906 L 262.5 5723.878906 Z M 262.5 5688.503906 " clip-rule="nonzero"/></clipPath><clipPath id="5c7f51f217"><path d="M 280.1875 5688.503906 L 297.875 5706.191406 L 280.1875 5723.878906 L 262.5 5706.191406 L 280.1875 5688.503906 " clip-rule="nonzero"/></clipPath><clipPath id="2941781c8f"><path d="M 262.5 5723.878906 L 297.875 5723.878906 L 297.875 5759.253906 L 262.5 5759.253906 Z M 262.5 5723.878906 " clip-rule="nonzero"/></clipPath><clipPath id="fbbfc98304"><path d="M 280.1875 5723.878906 L 297.875 5741.566406 L 280.1875 5759.253906 L 262.5 5741.566406 L 280.1875 5723.878906 " clip-rule="nonzero"/></clipPath><clipPath id="c4226a05c1"><path d="M 262.5 5759.253906 L 297.875 5759.253906 L 297.875 5794.628906 L 262.5 5794.628906 Z M 262.5 5759.253906 " clip-rule="nonzero"/></clipPath><clipPath id="8284f63257"><path d="M 280.1875 5759.253906 L 297.875 5776.941406 L 280.1875 5794.628906 L 262.5 5776.941406 L 280.1875 5759.253906 " clip-rule="nonzero"/></clipPath><clipPath id="180d8c2e0f"><path d="M 262.5 5794.628906 L 297.875 5794.628906 L 297.875 5830.003906 L 262.5 5830.003906 Z M 262.5 5794.628906 " clip-rule="nonzero"/></clipPath><clipPath id="d913f3366c"><path d="M 280.1875 5794.628906 L 297.875 5812.316406 L 280.1875 5830.003906 L 262.5 5812.316406 L 280.1875 5794.628906 " clip-rule="nonzero"/></clipPath><clipPath id="8e2d0c57d6"><path d="M 262.5 5830.003906 L 297.875 5830.003906 L 297.875 5865.378906 L 262.5 5865.378906 Z M 262.5 5830.003906 " clip-rule="nonzero"/></clipPath><clipPath id="d8c2344060"><path d="M 280.1875 5830.003906 L 297.875 5847.691406 L 280.1875 5865.378906 L 262.5 5847.691406 L 280.1875 5830.003906 " clip-rule="nonzero"/></clipPath><clipPath id="1157f89b08"><path d="M 262.5 5122.503906 L 297.875 5122.503906 L 297.875 5157.878906 L 262.5 5157.878906 Z M 262.5 5122.503906 " clip-rule="nonzero"/></clipPath><clipPath id="e743b7b633"><path d="M 280.1875 5122.503906 L 297.875 5140.191406 L 280.1875 5157.878906 L 262.5 5140.191406 L 280.1875 5122.503906 " clip-rule="nonzero"/></clipPath><clipPath id="e67b198eb1"><path d="M 262.5 5157.878906 L 297.875 5157.878906 L 297.875 5193.253906 L 262.5 5193.253906 Z M 262.5 5157.878906 " clip-rule="nonzero"/></clipPath><clipPath id="99e22ea341"><path d="M 280.1875 5157.878906 L 297.875 5175.566406 L 280.1875 5193.253906 L 262.5 5175.566406 L 280.1875 5157.878906 " clip-rule="nonzero"/></clipPath><clipPath id="38cb223c57"><path d="M 262.5 5193.253906 L 297.875 5193.253906 L 297.875 5228.628906 L 262.5 5228.628906 Z M 262.5 5193.253906 " clip-rule="nonzero"/></clipPath><clipPath id="84d917fff3"><path d="M 280.1875 5193.253906 L 297.875 5210.941406 L 280.1875 5228.628906 L 262.5 5210.941406 L 280.1875 5193.253906 " clip-rule="nonzero"/></clipPath><clipPath id="93a41db497"><path d="M 262.5 5228.628906 L 297.875 5228.628906 L 297.875 5264.003906 L 262.5 5264.003906 Z M 262.5 5228.628906 " clip-rule="nonzero"/></clipPath><clipPath id="298b3dedda"><path d="M 280.1875 5228.628906 L 297.875 5246.316406 L 280.1875 5264.003906 L 262.5 5246.316406 L 280.1875 5228.628906 " clip-rule="nonzero"/></clipPath><clipPath id="20770c8522"><path d="M 262.5 5264.003906 L 297.875 5264.003906 L 297.875 5299.378906 L 262.5 5299.378906 Z M 262.5 5264.003906 " clip-rule="nonzero"/></clipPath><clipPath id="3f12a37ae0"><path d="M 280.1875 5264.003906 L 297.875 5281.691406 L 280.1875 5299.378906 L 262.5 5281.691406 L 280.1875 5264.003906 " clip-rule="nonzero"/></clipPath><clipPath id="9d16e1394c"><path d="M 262.5 4981.003906 L 297.875 4981.003906 L 297.875 5016.378906 L 262.5 5016.378906 Z M 262.5 4981.003906 " clip-rule="nonzero"/></clipPath><clipPath id="4013210677"><path d="M 280.1875 4981.003906 L 297.875 4998.691406 L 280.1875 5016.378906 L 262.5 4998.691406 L 280.1875 4981.003906 " clip-rule="nonzero"/></clipPath><clipPath id="473b9bb284"><path d="M 262.5 5016.378906 L 297.875 5016.378906 L 297.875 5051.753906 L 262.5 5051.753906 Z M 262.5 5016.378906 " clip-rule="nonzero"/></clipPath><clipPath id="2c964fdecd"><path d="M 280.1875 5016.378906 L 297.875 5034.066406 L 280.1875 5051.753906 L 262.5 5034.066406 L 280.1875 5016.378906 " clip-rule="nonzero"/></clipPath><clipPath id="885d46a095"><path d="M 262.5 5051.753906 L 297.875 5051.753906 L 297.875 5087.128906 L 262.5 5087.128906 Z M 262.5 5051.753906 " clip-rule="nonzero"/></clipPath><clipPath id="bb25a9cb97"><path d="M 280.1875 5051.753906 L 297.875 5069.441406 L 280.1875 5087.128906 L 262.5 5069.441406 L 280.1875 5051.753906 " clip-rule="nonzero"/></clipPath><clipPath id="73173fa8d2"><path d="M 262.5 5087.128906 L 297.875 5087.128906 L 297.875 5122.503906 L 262.5 5122.503906 Z M 262.5 5087.128906 " clip-rule="nonzero"/></clipPath><clipPath id="612f86876a"><path d="M 280.1875 5087.128906 L 297.875 5104.816406 L 280.1875 5122.503906 L 262.5 5104.816406 L 280.1875 5087.128906 " clip-rule="nonzero"/></clipPath><clipPath id="779fc74f68"><path d="M 262.5 4945.628906 L 297.875 4945.628906 L 297.875 4981.003906 L 262.5 4981.003906 Z M 262.5 4945.628906 " clip-rule="nonzero"/></clipPath><clipPath id="46880071f6"><path d="M 280.1875 4945.628906 L 297.875 4963.316406 L 280.1875 4981.003906 L 262.5 4963.316406 L 280.1875 4945.628906 " clip-rule="nonzero"/></clipPath><clipPath id="d3b01546e8"><path d="M 262.5 3000 L 297.875 3000 L 297.875 3035.375 L 262.5 3035.375 Z M 262.5 3000 " clip-rule="nonzero"/></clipPath><clipPath id="6d1d937ea6"><path d="M 280.1875 3000 L 297.875 3017.6875 L 280.1875 3035.375 L 262.5 3017.6875 L 280.1875 3000 " clip-rule="nonzero"/></clipPath><clipPath id="992d942760"><path d="M 262.5 3035.375 L 297.875 3035.375 L 297.875 3070.75 L 262.5 3070.75 Z M 262.5 3035.375 " clip-rule="nonzero"/></clipPath><clipPath id="00e99a950d"><path d="M 280.1875 3035.375 L 297.875 3053.0625 L 280.1875 3070.75 L 262.5 3053.0625 L 280.1875 3035.375 " clip-rule="nonzero"/></clipPath><clipPath id="592c3fe167"><path d="M 262.5 3070.75 L 297.875 3070.75 L 297.875 3106.125 L 262.5 3106.125 Z M 262.5 3070.75 " clip-rule="nonzero"/></clipPath><clipPath id="0b7d83acc5"><path d="M 280.1875 3070.75 L 297.875 3088.4375 L 280.1875 3106.125 L 262.5 3088.4375 L 280.1875 3070.75 " clip-rule="nonzero"/></clipPath><clipPath id="751a0eefef"><path d="M 262.5 3106.125 L 297.875 3106.125 L 297.875 3141.5 L 262.5 3141.5 Z M 262.5 3106.125 " clip-rule="nonzero"/></clipPath><clipPath id="490616f0ec"><path d="M 280.1875 3106.125 L 297.875 3123.8125 L 280.1875 3141.5 L 262.5 3123.8125 L 280.1875 3106.125 " clip-rule="nonzero"/></clipPath><clipPath id="cd6ebfaeba"><path d="M 262.5 3141.5 L 297.875 3141.5 L 297.875 3176.875 L 262.5 3176.875 Z M 262.5 3141.5 " clip-rule="nonzero"/></clipPath><clipPath id="c0bff980e6"><path d="M 280.1875 3141.5 L 297.875 3159.1875 L 280.1875 3176.875 L 262.5 3159.1875 L 280.1875 3141.5 " clip-rule="nonzero"/></clipPath><clipPath id="b34d08fd59"><path d="M 262.5 3176.875 L 297.875 3176.875 L 297.875 3212.25 L 262.5 3212.25 Z M 262.5 3176.875 " clip-rule="nonzero"/></clipPath><clipPath id="95b9eb6905"><path d="M 280.1875 3176.875 L 297.875 3194.5625 L 280.1875 3212.25 L 262.5 3194.5625 L 280.1875 3176.875 " clip-rule="nonzero"/></clipPath><clipPath id="867f6c4ac2"><path d="M 262.5 3212.25 L 297.875 3212.25 L 297.875 3247.625 L 262.5 3247.625 Z M 262.5 3212.25 " clip-rule="nonzero"/></clipPath><clipPath id="a5128de186"><path d="M 280.1875 3212.25 L 297.875 3229.9375 L 280.1875 3247.625 L 262.5 3229.9375 L 280.1875 3212.25 " clip-rule="nonzero"/></clipPath><clipPath id="d94a7594cf"><path d="M 262.5 3247.625 L 297.875 3247.625 L 297.875 3283 L 262.5 3283 Z M 262.5 3247.625 " clip-rule="nonzero"/></clipPath><clipPath id="4cda6eefb1"><path d="M 280.1875 3247.625 L 297.875 3265.3125 L 280.1875 3283 L 262.5 3265.3125 L 280.1875 3247.625 " clip-rule="nonzero"/></clipPath><clipPath id="b33b45df81"><path d="M 262.5 3283 L 297.875 3283 L 297.875 3318.375 L 262.5 3318.375 Z M 262.5 3283 " clip-rule="nonzero"/></clipPath><clipPath id="d2c758148a"><path d="M 280.1875 3283 L 297.875 3300.6875 L 280.1875 3318.375 L 262.5 3300.6875 L 280.1875 3283 " clip-rule="nonzero"/></clipPath><clipPath id="f0eb5e67bd"><path d="M 262.5 3318.375 L 297.875 3318.375 L 297.875 3353.75 L 262.5 3353.75 Z M 262.5 3318.375 " clip-rule="nonzero"/></clipPath><clipPath id="8829a3bf5b"><path d="M 280.1875 3318.375 L 297.875 3336.0625 L 280.1875 3353.75 L 262.5 3336.0625 L 280.1875 3318.375 " clip-rule="nonzero"/></clipPath><clipPath id="ceddeabb8f"><path d="M 262.5 3353.75 L 297.875 3353.75 L 297.875 3389.125 L 262.5 3389.125 Z M 262.5 3353.75 " clip-rule="nonzero"/></clipPath><clipPath id="907b2535ef"><path d="M 280.1875 3353.75 L 297.875 3371.4375 L 280.1875 3389.125 L 262.5 3371.4375 L 280.1875 3353.75 " clip-rule="nonzero"/></clipPath><clipPath id="34c9d99aac"><path d="M 262.5 3389.125 L 297.875 3389.125 L 297.875 3424.5 L 262.5 3424.5 Z M 262.5 3389.125 " clip-rule="nonzero"/></clipPath><clipPath id="a49f8789bf"><path d="M 280.1875 3389.125 L 297.875 3406.8125 L 280.1875 3424.5 L 262.5 3406.8125 L 280.1875 3389.125 " clip-rule="nonzero"/></clipPath><clipPath id="dd7441be17"><path d="M 262.5 3424.5 L 297.875 3424.5 L 297.875 3459.875 L 262.5 3459.875 Z M 262.5 3424.5 " clip-rule="nonzero"/></clipPath><clipPath id="1f370259e1"><path d="M 280.1875 3424.5 L 297.875 3442.1875 L 280.1875 3459.875 L 262.5 3442.1875 L 280.1875 3424.5 " clip-rule="nonzero"/></clipPath><clipPath id="d37f0f6705"><path d="M 262.5 3459.875 L 297.875 3459.875 L 297.875 3495.25 L 262.5 3495.25 Z M 262.5 3459.875 " clip-rule="nonzero"/></clipPath><clipPath id="ecc02c020b"><path d="M 280.1875 3459.875 L 297.875 3477.5625 L 280.1875 3495.25 L 262.5 3477.5625 L 280.1875 3459.875 " clip-rule="nonzero"/></clipPath><clipPath id="fd81364098"><path d="M 262.5 3495.25 L 297.875 3495.25 L 297.875 3530.625 L 262.5 3530.625 Z M 262.5 3495.25 " clip-rule="nonzero"/></clipPath><clipPath id="e87f347068"><path d="M 280.1875 3495.25 L 297.875 3512.9375 L 280.1875 3530.625 L 262.5 3512.9375 L 280.1875 3495.25 " clip-rule="nonzero"/></clipPath><clipPath id="545689cd76"><path d="M 262.5 3530.625 L 297.875 3530.625 L 297.875 3566 L 262.5 3566 Z M 262.5 3530.625 " clip-rule="nonzero"/></clipPath><clipPath id="3ec85e62f6"><path d="M 280.1875 3530.625 L 297.875 3548.3125 L 280.1875 3566 L 262.5 3548.3125 L 280.1875 3530.625 " clip-rule="nonzero"/></clipPath><clipPath id="16b83f4534"><path d="M 262.5 3566 L 297.875 3566 L 297.875 3601.375 L 262.5 3601.375 Z M 262.5 3566 " clip-rule="nonzero"/></clipPath><clipPath id="3beeffeb78"><path d="M 280.1875 3566 L 297.875 3583.6875 L 280.1875 3601.375 L 262.5 3583.6875 L 280.1875 3566 " clip-rule="nonzero"/></clipPath><clipPath id="fcfc68ea29"><path d="M 262.5 3601.375 L 297.875 3601.375 L 297.875 3636.75 L 262.5 3636.75 Z M 262.5 3601.375 " clip-rule="nonzero"/></clipPath><clipPath id="16b315a41c"><path d="M 280.1875 3601.375 L 297.875 3619.0625 L 280.1875 3636.75 L 262.5 3619.0625 L 280.1875 3601.375 " clip-rule="nonzero"/></clipPath><clipPath id="cb092b965f"><path d="M 262.5 3636.75 L 297.875 3636.75 L 297.875 3672.125 L 262.5 3672.125 Z M 262.5 3636.75 " clip-rule="nonzero"/></clipPath><clipPath id="b49bf9ece9"><path d="M 280.1875 3636.75 L 297.875 3654.4375 L 280.1875 3672.125 L 262.5 3654.4375 L 280.1875 3636.75 " clip-rule="nonzero"/></clipPath><clipPath id="3f570c73d7"><path d="M 262.5 3672.125 L 297.875 3672.125 L 297.875 3707.5 L 262.5 3707.5 Z M 262.5 3672.125 " clip-rule="nonzero"/></clipPath><clipPath id="e98c80a2f9"><path d="M 280.1875 3672.125 L 297.875 3689.8125 L 280.1875 3707.5 L 262.5 3689.8125 L 280.1875 3672.125 " clip-rule="nonzero"/></clipPath><clipPath id="57a0c249b8"><path d="M 262.5 3707.5 L 297.875 3707.5 L 297.875 3742.875 L 262.5 3742.875 Z M 262.5 3707.5 " clip-rule="nonzero"/></clipPath><clipPath id="e7c63e62fe"><path d="M 280.1875 3707.5 L 297.875 3725.1875 L 280.1875 3742.875 L 262.5 3725.1875 L 280.1875 3707.5 " clip-rule="nonzero"/></clipPath><clipPath id="d406be579c"><path d="M 262.5 3742.875 L 297.875 3742.875 L 297.875 3778.25 L 262.5 3778.25 Z M 262.5 3742.875 " clip-rule="nonzero"/></clipPath><clipPath id="eaaa6ecc09"><path d="M 280.1875 3742.875 L 297.875 3760.5625 L 280.1875 3778.25 L 262.5 3760.5625 L 280.1875 3742.875 " clip-rule="nonzero"/></clipPath><clipPath id="fcc9387aa9"><path d="M 262.5 3778.25 L 297.875 3778.25 L 297.875 3813.625 L 262.5 3813.625 Z M 262.5 3778.25 " clip-rule="nonzero"/></clipPath><clipPath id="50ee818745"><path d="M 280.1875 3778.25 L 297.875 3795.9375 L 280.1875 3813.625 L 262.5 3795.9375 L 280.1875 3778.25 " clip-rule="nonzero"/></clipPath><clipPath id="a950f812e7"><path d="M 262.5 3813.625 L 297.875 3813.625 L 297.875 3849 L 262.5 3849 Z M 262.5 3813.625 " clip-rule="nonzero"/></clipPath><clipPath id="9ef5ab4939"><path d="M 280.1875 3813.625 L 297.875 3831.3125 L 280.1875 3849 L 262.5 3831.3125 L 280.1875 3813.625 " clip-rule="nonzero"/></clipPath><clipPath id="4165912f0c"><path d="M 262.5 3849 L 297.875 3849 L 297.875 3884.375 L 262.5 3884.375 Z M 262.5 3849 " clip-rule="nonzero"/></clipPath><clipPath id="960bf6efd0"><path d="M 280.1875 3849 L 297.875 3866.6875 L 280.1875 3884.375 L 262.5 3866.6875 L 280.1875 3849 " clip-rule="nonzero"/></clipPath><clipPath id="1b82818e42"><path d="M 262.5 3884.375 L 297.875 3884.375 L 297.875 3919.75 L 262.5 3919.75 Z M 262.5 3884.375 " clip-rule="nonzero"/></clipPath><clipPath id="a7a805815c"><path d="M 280.1875 3884.375 L 297.875 3902.0625 L 280.1875 3919.75 L 262.5 3902.0625 L 280.1875 3884.375 " clip-rule="nonzero"/></clipPath><clipPath id="fe4d714232"><path d="M 262.5 3919.75 L 297.875 3919.75 L 297.875 3955.125 L 262.5 3955.125 Z M 262.5 3919.75 " clip-rule="nonzero"/></clipPath><clipPath id="8f9371e69c"><path d="M 280.1875 3919.75 L 297.875 3937.4375 L 280.1875 3955.125 L 262.5 3937.4375 L 280.1875 3919.75 " clip-rule="nonzero"/></clipPath><clipPath id="7b42047474"><path d="M 262.5 3955.125 L 297.875 3955.125 L 297.875 3990.5 L 262.5 3990.5 Z M 262.5 3955.125 " clip-rule="nonzero"/></clipPath><clipPath id="6ba1ed14e6"><path d="M 280.1875 3955.125 L 297.875 3972.8125 L 280.1875 3990.5 L 262.5 3972.8125 L 280.1875 3955.125 " clip-rule="nonzero"/></clipPath><clipPath id="b16216edc8"><path d="M 262.5 3990.5 L 297.875 3990.5 L 297.875 4025.875 L 262.5 4025.875 Z M 262.5 3990.5 " clip-rule="nonzero"/></clipPath><clipPath id="abb277fcf7"><path d="M 280.1875 3990.5 L 297.875 4008.1875 L 280.1875 4025.875 L 262.5 4008.1875 L 280.1875 3990.5 " clip-rule="nonzero"/></clipPath><clipPath id="6f2b9cfc18"><path d="M 262.5 4025.878906 L 297.875 4025.878906 L 297.875 4061.253906 L 262.5 4061.253906 Z M 262.5 4025.878906 " clip-rule="nonzero"/></clipPath><clipPath id="a003ec64d0"><path d="M 280.1875 4025.878906 L 297.875 4043.566406 L 280.1875 4061.253906 L 262.5 4043.566406 L 280.1875 4025.878906 " clip-rule="nonzero"/></clipPath><clipPath id="913176d688"><path d="M 262.5 4061.253906 L 297.875 4061.253906 L 297.875 4096.628906 L 262.5 4096.628906 Z M 262.5 4061.253906 " clip-rule="nonzero"/></clipPath><clipPath id="3e34cb3e6c"><path d="M 280.1875 4061.253906 L 297.875 4078.941406 L 280.1875 4096.628906 L 262.5 4078.941406 L 280.1875 4061.253906 " clip-rule="nonzero"/></clipPath><clipPath id="d922306d6c"><path d="M 262.5 4096.625 L 297.875 4096.625 L 297.875 4132 L 262.5 4132 Z M 262.5 4096.625 " clip-rule="nonzero"/></clipPath><clipPath id="218cca3b9c"><path d="M 280.1875 4096.625 L 297.875 4114.3125 L 280.1875 4132.003906 L 262.5 4114.3125 L 280.1875 4096.625 " clip-rule="nonzero"/></clipPath><clipPath id="04832c3a6e"><path d="M 262.5 4132.003906 L 297.875 4132.003906 L 297.875 4167.378906 L 262.5 4167.378906 Z M 262.5 4132.003906 " clip-rule="nonzero"/></clipPath><clipPath id="140bb134e1"><path d="M 280.1875 4132.003906 L 297.875 4149.6875 L 280.1875 4167.378906 L 262.5 4149.6875 L 280.1875 4132.003906 " clip-rule="nonzero"/></clipPath><clipPath id="77af717029"><path d="M 262.5 4167.378906 L 297.875 4167.378906 L 297.875 4202.753906 L 262.5 4202.753906 Z M 262.5 4167.378906 " clip-rule="nonzero"/></clipPath><clipPath id="debfa65257"><path d="M 280.1875 4167.378906 L 297.875 4185.066406 L 280.1875 4202.753906 L 262.5 4185.066406 L 280.1875 4167.378906 " clip-rule="nonzero"/></clipPath><clipPath id="022cf2eab3"><path d="M 262.5 4202.753906 L 297.875 4202.753906 L 297.875 4238.128906 L 262.5 4238.128906 Z M 262.5 4202.753906 " clip-rule="nonzero"/></clipPath><clipPath id="0f8d028a15"><path d="M 280.1875 4202.753906 L 297.875 4220.441406 L 280.1875 4238.128906 L 262.5 4220.441406 L 280.1875 4202.753906 " clip-rule="nonzero"/></clipPath><clipPath id="0543334cd4"><path d="M 262.5 4238.128906 L 297.875 4238.128906 L 297.875 4273.503906 L 262.5 4273.503906 Z M 262.5 4238.128906 " clip-rule="nonzero"/></clipPath><clipPath id="3170416053"><path d="M 280.1875 4238.128906 L 297.875 4255.816406 L 280.1875 4273.503906 L 262.5 4255.816406 L 280.1875 4238.128906 " clip-rule="nonzero"/></clipPath><clipPath id="cc3378263f"><path d="M 262.5 4273.503906 L 297.875 4273.503906 L 297.875 4308.878906 L 262.5 4308.878906 Z M 262.5 4273.503906 " clip-rule="nonzero"/></clipPath><clipPath id="c3815481ed"><path d="M 280.1875 4273.503906 L 297.875 4291.191406 L 280.1875 4308.878906 L 262.5 4291.191406 L 280.1875 4273.503906 " clip-rule="nonzero"/></clipPath><clipPath id="db1ca03f1c"><path d="M 262.5 4308.878906 L 297.875 4308.878906 L 297.875 4344.253906 L 262.5 4344.253906 Z M 262.5 4308.878906 " clip-rule="nonzero"/></clipPath><clipPath id="0a1bb2b500"><path d="M 280.1875 4308.878906 L 297.875 4326.566406 L 280.1875 4344.253906 L 262.5 4326.566406 L 280.1875 4308.878906 " clip-rule="nonzero"/></clipPath><clipPath id="a165fb241a"><path d="M 262.5 4344.253906 L 297.875 4344.253906 L 297.875 4379.628906 L 262.5 4379.628906 Z M 262.5 4344.253906 " clip-rule="nonzero"/></clipPath><clipPath id="b4b10bcfef"><path d="M 280.1875 4344.253906 L 297.875 4361.941406 L 280.1875 4379.628906 L 262.5 4361.941406 L 280.1875 4344.253906 " clip-rule="nonzero"/></clipPath><clipPath id="224a58ec53"><path d="M 262.5 4379.628906 L 297.875 4379.628906 L 297.875 4415.003906 L 262.5 4415.003906 Z M 262.5 4379.628906 " clip-rule="nonzero"/></clipPath><clipPath id="b7c2203735"><path d="M 280.1875 4379.628906 L 297.875 4397.316406 L 280.1875 4415.003906 L 262.5 4397.316406 L 280.1875 4379.628906 " clip-rule="nonzero"/></clipPath><clipPath id="afefe290e1"><path d="M 262.5 4415.003906 L 297.875 4415.003906 L 297.875 4450.378906 L 262.5 4450.378906 Z M 262.5 4415.003906 " clip-rule="nonzero"/></clipPath><clipPath id="c10f727133"><path d="M 280.1875 4415.003906 L 297.875 4432.691406 L 280.1875 4450.378906 L 262.5 4432.691406 L 280.1875 4415.003906 " clip-rule="nonzero"/></clipPath><clipPath id="6cf5b35b78"><path d="M 262.5 4450.378906 L 297.875 4450.378906 L 297.875 4485.753906 L 262.5 4485.753906 Z M 262.5 4450.378906 " clip-rule="nonzero"/></clipPath><clipPath id="c6ec9cc3e5"><path d="M 280.1875 4450.378906 L 297.875 4468.066406 L 280.1875 4485.753906 L 262.5 4468.066406 L 280.1875 4450.378906 " clip-rule="nonzero"/></clipPath><clipPath id="0d9e239249"><path d="M 262.5 4485.753906 L 297.875 4485.753906 L 297.875 4521.128906 L 262.5 4521.128906 Z M 262.5 4485.753906 " clip-rule="nonzero"/></clipPath><clipPath id="9802ac5255"><path d="M 280.1875 4485.753906 L 297.875 4503.441406 L 280.1875 4521.128906 L 262.5 4503.441406 L 280.1875 4485.753906 " clip-rule="nonzero"/></clipPath><clipPath id="92488a2ab2"><path d="M 262.5 4521.128906 L 297.875 4521.128906 L 297.875 4556.503906 L 262.5 4556.503906 Z M 262.5 4521.128906 " clip-rule="nonzero"/></clipPath><clipPath id="c15dc99af7"><path d="M 280.1875 4521.128906 L 297.875 4538.816406 L 280.1875 4556.503906 L 262.5 4538.816406 L 280.1875 4521.128906 " clip-rule="nonzero"/></clipPath><clipPath id="98b2690adb"><path d="M 262.5 4556.503906 L 297.875 4556.503906 L 297.875 4591.878906 L 262.5 4591.878906 Z M 262.5 4556.503906 " clip-rule="nonzero"/></clipPath><clipPath id="d7b44eccfd"><path d="M 280.1875 4556.503906 L 297.875 4574.191406 L 280.1875 4591.878906 L 262.5 4574.191406 L 280.1875 4556.503906 " clip-rule="nonzero"/></clipPath><clipPath id="df61096445"><path d="M 262.5 4591.878906 L 297.875 4591.878906 L 297.875 4627.253906 L 262.5 4627.253906 Z M 262.5 4591.878906 " clip-rule="nonzero"/></clipPath><clipPath id="87045cc0d2"><path d="M 280.1875 4591.878906 L 297.875 4609.566406 L 280.1875 4627.253906 L 262.5 4609.566406 L 280.1875 4591.878906 " clip-rule="nonzero"/></clipPath><clipPath id="48723fbaf1"><path d="M 262.5 4627.253906 L 297.875 4627.253906 L 297.875 4662.628906 L 262.5 4662.628906 Z M 262.5 4627.253906 " clip-rule="nonzero"/></clipPath><clipPath id="19bbe6387c"><path d="M 280.1875 4627.253906 L 297.875 4644.941406 L 280.1875 4662.628906 L 262.5 4644.941406 L 280.1875 4627.253906 " clip-rule="nonzero"/></clipPath><clipPath id="fd93427364"><path d="M 262.5 4662.628906 L 297.875 4662.628906 L 297.875 4698.003906 L 262.5 4698.003906 Z M 262.5 4662.628906 " clip-rule="nonzero"/></clipPath><clipPath id="10b0aaa6d1"><path d="M 280.1875 4662.628906 L 297.875 4680.316406 L 280.1875 4698.003906 L 262.5 4680.316406 L 280.1875 4662.628906 " clip-rule="nonzero"/></clipPath><clipPath id="987808bd85"><path d="M 262.5 4698.003906 L 297.875 4698.003906 L 297.875 4733.378906 L 262.5 4733.378906 Z M 262.5 4698.003906 " clip-rule="nonzero"/></clipPath><clipPath id="ae73934e44"><path d="M 280.1875 4698.003906 L 297.875 4715.691406 L 280.1875 4733.378906 L 262.5 4715.691406 L 280.1875 4698.003906 " clip-rule="nonzero"/></clipPath><clipPath id="f391bd0dba"><path d="M 262.5 4733.378906 L 297.875 4733.378906 L 297.875 4768.753906 L 262.5 4768.753906 Z M 262.5 4733.378906 " clip-rule="nonzero"/></clipPath><clipPath id="ef186631f8"><path d="M 280.1875 4733.378906 L 297.875 4751.066406 L 280.1875 4768.753906 L 262.5 4751.066406 L 280.1875 4733.378906 " clip-rule="nonzero"/></clipPath><clipPath id="c0d24fac44"><path d="M 262.5 4768.753906 L 297.875 4768.753906 L 297.875 4804.128906 L 262.5 4804.128906 Z M 262.5 4768.753906 " clip-rule="nonzero"/></clipPath><clipPath id="a551a0709a"><path d="M 280.1875 4768.753906 L 297.875 4786.441406 L 280.1875 4804.128906 L 262.5 4786.441406 L 280.1875 4768.753906 " clip-rule="nonzero"/></clipPath><clipPath id="9159d1ab6d"><path d="M 262.5 4804.128906 L 297.875 4804.128906 L 297.875 4839.503906 L 262.5 4839.503906 Z M 262.5 4804.128906 " clip-rule="nonzero"/></clipPath><clipPath id="d50f7edef8"><path d="M 280.1875 4804.128906 L 297.875 4821.816406 L 280.1875 4839.503906 L 262.5 4821.816406 L 280.1875 4804.128906 " clip-rule="nonzero"/></clipPath><clipPath id="496051340e"><path d="M 262.5 4839.503906 L 297.875 4839.503906 L 297.875 4874.878906 L 262.5 4874.878906 Z M 262.5 4839.503906 " clip-rule="nonzero"/></clipPath><clipPath id="3e482e9411"><path d="M 280.1875 4839.503906 L 297.875 4857.191406 L 280.1875 4874.878906 L 262.5 4857.191406 L 280.1875 4839.503906 " clip-rule="nonzero"/></clipPath><clipPath id="84f28b824a"><path d="M 262.5 4874.878906 L 297.875 4874.878906 L 297.875 4910.253906 L 262.5 4910.253906 Z M 262.5 4874.878906 " clip-rule="nonzero"/></clipPath><clipPath id="aa17fa00a0"><path d="M 280.1875 4874.878906 L 297.875 4892.566406 L 280.1875 4910.253906 L 262.5 4892.566406 L 280.1875 4874.878906 " clip-rule="nonzero"/></clipPath><clipPath id="bd6bd14413"><path d="M 262.5 4910.253906 L 297.875 4910.253906 L 297.875 4945.628906 L 262.5 4945.628906 Z M 262.5 4910.253906 " clip-rule="nonzero"/></clipPath><clipPath id="e2de5ca10d"><path d="M 280.1875 4910.253906 L 297.875 4927.941406 L 280.1875 4945.628906 L 262.5 4927.941406 L 280.1875 4910.253906 " clip-rule="nonzero"/></clipPath><clipPath id="dd7f069f8e"><path d="M 262.5 2964.75 L 297.875 2964.75 L 297.875 3000.125 L 262.5 3000.125 Z M 262.5 2964.75 " clip-rule="nonzero"/></clipPath><clipPath id="bb9a64f5c9"><path d="M 280.1875 2964.75 L 297.875 2982.4375 L 280.1875 3000.125 L 262.5 2982.4375 L 280.1875 2964.75 " clip-rule="nonzero"/></clipPath><clipPath id="fc16e7c3d2"><path d="M 262.5 2929.5 L 297.875 2929.5 L 297.875 2964.875 L 262.5 2964.875 Z M 262.5 2929.5 " clip-rule="nonzero"/></clipPath><clipPath id="a1b9cac27f"><path d="M 280.1875 2929.5 L 297.875 2947.1875 L 280.1875 2964.875 L 262.5 2947.1875 L 280.1875 2929.5 " clip-rule="nonzero"/></clipPath><clipPath id="b20dd3d430"><path d="M 262.5 2894.25 L 297.875 2894.25 L 297.875 2929.625 L 262.5 2929.625 Z M 262.5 2894.25 " clip-rule="nonzero"/></clipPath><clipPath id="5fbe6c6bc1"><path d="M 280.1875 2894.25 L 297.875 2911.9375 L 280.1875 2929.625 L 262.5 2911.9375 L 280.1875 2894.25 " clip-rule="nonzero"/></clipPath><clipPath id="f20e507470"><path d="M 262.5 2859 L 297.875 2859 L 297.875 2894.375 L 262.5 2894.375 Z M 262.5 2859 " clip-rule="nonzero"/></clipPath><clipPath id="5d5d2e0bff"><path d="M 280.1875 2859 L 297.875 2876.6875 L 280.1875 2894.375 L 262.5 2876.6875 L 280.1875 2859 " clip-rule="nonzero"/></clipPath><clipPath id="764173cf47"><path d="M 262.5 2823.75 L 297.875 2823.75 L 297.875 2859.125 L 262.5 2859.125 Z M 262.5 2823.75 " clip-rule="nonzero"/></clipPath><clipPath id="babf603351"><path d="M 280.1875 2823.75 L 297.875 2841.4375 L 280.1875 2859.125 L 262.5 2841.4375 L 280.1875 2823.75 " clip-rule="nonzero"/></clipPath><clipPath id="50d85def95"><path d="M 262.5 2788.5 L 297.875 2788.5 L 297.875 2823.875 L 262.5 2823.875 Z M 262.5 2788.5 " clip-rule="nonzero"/></clipPath><clipPath id="806461850d"><path d="M 280.1875 2788.5 L 297.875 2806.1875 L 280.1875 2823.875 L 262.5 2806.1875 L 280.1875 2788.5 " clip-rule="nonzero"/></clipPath><clipPath id="53f459c393"><path d="M 262.5 2753.25 L 297.875 2753.25 L 297.875 2788.625 L 262.5 2788.625 Z M 262.5 2753.25 " clip-rule="nonzero"/></clipPath><clipPath id="ef9faca400"><path d="M 280.1875 2753.25 L 297.875 2770.9375 L 280.1875 2788.625 L 262.5 2770.9375 L 280.1875 2753.25 " clip-rule="nonzero"/></clipPath><clipPath id="60340a6646"><path d="M 262.5 2718 L 297.875 2718 L 297.875 2753.375 L 262.5 2753.375 Z M 262.5 2718 " clip-rule="nonzero"/></clipPath><clipPath id="fdcb67933c"><path d="M 280.1875 2718 L 297.875 2735.6875 L 280.1875 2753.375 L 262.5 2735.6875 L 280.1875 2718 " clip-rule="nonzero"/></clipPath><clipPath id="577230a25d"><path d="M 262.5 2682.75 L 297.875 2682.75 L 297.875 2718.125 L 262.5 2718.125 Z M 262.5 2682.75 " clip-rule="nonzero"/></clipPath><clipPath id="4bed2af648"><path d="M 280.1875 2682.75 L 297.875 2700.4375 L 280.1875 2718.125 L 262.5 2700.4375 L 280.1875 2682.75 " clip-rule="nonzero"/></clipPath><clipPath id="0ff890d8a6"><path d="M 262.5 2647.5 L 297.875 2647.5 L 297.875 2682.875 L 262.5 2682.875 Z M 262.5 2647.5 " clip-rule="nonzero"/></clipPath><clipPath id="1e57a06aaa"><path d="M 280.1875 2647.5 L 297.875 2665.1875 L 280.1875 2682.875 L 262.5 2665.1875 L 280.1875 2647.5 " clip-rule="nonzero"/></clipPath><clipPath id="0317c8c1bb"><path d="M 262.5 2612.25 L 297.875 2612.25 L 297.875 2647.625 L 262.5 2647.625 Z M 262.5 2612.25 " clip-rule="nonzero"/></clipPath><clipPath id="3818b5ca36"><path d="M 280.1875 2612.25 L 297.875 2629.9375 L 280.1875 2647.625 L 262.5 2629.9375 L 280.1875 2612.25 " clip-rule="nonzero"/></clipPath><clipPath id="b89858fae9"><path d="M 262.5 2577 L 297.875 2577 L 297.875 2612.375 L 262.5 2612.375 Z M 262.5 2577 " clip-rule="nonzero"/></clipPath><clipPath id="26f1c5781a"><path d="M 280.1875 2577 L 297.875 2594.6875 L 280.1875 2612.375 L 262.5 2594.6875 L 280.1875 2577 " clip-rule="nonzero"/></clipPath><clipPath id="4e321b8e0d"><path d="M 262.5 2541.75 L 297.875 2541.75 L 297.875 2577.125 L 262.5 2577.125 Z M 262.5 2541.75 " clip-rule="nonzero"/></clipPath><clipPath id="393bc6c48f"><path d="M 280.1875 2541.75 L 297.875 2559.4375 L 280.1875 2577.125 L 262.5 2559.4375 L 280.1875 2541.75 " clip-rule="nonzero"/></clipPath><clipPath id="c8a46c05df"><path d="M 262.5 2506.5 L 297.875 2506.5 L 297.875 2541.875 L 262.5 2541.875 Z M 262.5 2506.5 " clip-rule="nonzero"/></clipPath><clipPath id="8fbbf9a7a4"><path d="M 280.1875 2506.5 L 297.875 2524.1875 L 280.1875 2541.875 L 262.5 2524.1875 L 280.1875 2506.5 " clip-rule="nonzero"/></clipPath><clipPath id="9757ff09ad"><path d="M 262.5 2471.25 L 297.875 2471.25 L 297.875 2506.625 L 262.5 2506.625 Z M 262.5 2471.25 " clip-rule="nonzero"/></clipPath><clipPath id="c2559b3fcd"><path d="M 280.1875 2471.25 L 297.875 2488.9375 L 280.1875 2506.625 L 262.5 2488.9375 L 280.1875 2471.25 " clip-rule="nonzero"/></clipPath><clipPath id="5a40980f63"><path d="M 262.5 2436 L 297.875 2436 L 297.875 2471.375 L 262.5 2471.375 Z M 262.5 2436 " clip-rule="nonzero"/></clipPath><clipPath id="bc7c90dd38"><path d="M 280.1875 2436 L 297.875 2453.6875 L 280.1875 2471.375 L 262.5 2453.6875 L 280.1875 2436 " clip-rule="nonzero"/></clipPath><clipPath id="f685ff91c5"><path d="M 262.5 2400.75 L 297.875 2400.75 L 297.875 2436.125 L 262.5 2436.125 Z M 262.5 2400.75 " clip-rule="nonzero"/></clipPath><clipPath id="e7cbc05dbe"><path d="M 280.1875 2400.75 L 297.875 2418.4375 L 280.1875 2436.125 L 262.5 2418.4375 L 280.1875 2400.75 " clip-rule="nonzero"/></clipPath><clipPath id="b70079f12a"><path d="M 262.5 2365.5 L 297.875 2365.5 L 297.875 2400.875 L 262.5 2400.875 Z M 262.5 2365.5 " clip-rule="nonzero"/></clipPath><clipPath id="037290dfa5"><path d="M 280.1875 2365.5 L 297.875 2383.1875 L 280.1875 2400.875 L 262.5 2383.1875 L 280.1875 2365.5 " clip-rule="nonzero"/></clipPath><clipPath id="2fb1e2f155"><path d="M 262.5 2330.25 L 297.875 2330.25 L 297.875 2365.625 L 262.5 2365.625 Z M 262.5 2330.25 " clip-rule="nonzero"/></clipPath><clipPath id="a36d25bce6"><path d="M 280.1875 2330.25 L 297.875 2347.9375 L 280.1875 2365.625 L 262.5 2347.9375 L 280.1875 2330.25 " clip-rule="nonzero"/></clipPath><clipPath id="6752dc2840"><path d="M 262.5 2295 L 297.875 2295 L 297.875 2330.375 L 262.5 2330.375 Z M 262.5 2295 " clip-rule="nonzero"/></clipPath><clipPath id="d112928aff"><path d="M 280.1875 2295 L 297.875 2312.6875 L 280.1875 2330.375 L 262.5 2312.6875 L 280.1875 2295 " clip-rule="nonzero"/></clipPath><clipPath id="d547d1c1bd"><path d="M 262.5 2259.75 L 297.875 2259.75 L 297.875 2295.125 L 262.5 2295.125 Z M 262.5 2259.75 " clip-rule="nonzero"/></clipPath><clipPath id="8b5a165277"><path d="M 280.1875 2259.75 L 297.875 2277.4375 L 280.1875 2295.125 L 262.5 2277.4375 L 280.1875 2259.75 " clip-rule="nonzero"/></clipPath><clipPath id="c30af2c164"><path d="M 262.5 2224.375 L 297.875 2224.375 L 297.875 2259.75 L 262.5 2259.75 Z M 262.5 2224.375 " clip-rule="nonzero"/></clipPath><clipPath id="95250668d4"><path d="M 280.1875 2224.375 L 297.875 2242.0625 L 280.1875 2259.75 L 262.5 2242.0625 L 280.1875 2224.375 " clip-rule="nonzero"/></clipPath><clipPath id="9c6eccdd52"><path d="M 262.5 2189 L 297.875 2189 L 297.875 2224.375 L 262.5 2224.375 Z M 262.5 2189 " clip-rule="nonzero"/></clipPath><clipPath id="6a9df16498"><path d="M 280.1875 2189 L 297.875 2206.6875 L 280.1875 2224.375 L 262.5 2206.6875 L 280.1875 2189 " clip-rule="nonzero"/></clipPath><clipPath id="67cff73ae9"><path d="M 262.5 2153.625 L 297.875 2153.625 L 297.875 2189 L 262.5 2189 Z M 262.5 2153.625 " clip-rule="nonzero"/></clipPath><clipPath id="e0094524a3"><path d="M 280.1875 2153.625 L 297.875 2171.3125 L 280.1875 2189 L 262.5 2171.3125 L 280.1875 2153.625 " clip-rule="nonzero"/></clipPath><clipPath id="271907a0d1"><path d="M 262.5 2118.25 L 297.875 2118.25 L 297.875 2153.625 L 262.5 2153.625 Z M 262.5 2118.25 " clip-rule="nonzero"/></clipPath><clipPath id="002cbb3bdf"><path d="M 280.1875 2118.25 L 297.875 2135.9375 L 280.1875 2153.625 L 262.5 2135.9375 L 280.1875 2118.25 " clip-rule="nonzero"/></clipPath><clipPath id="3e08effb11"><path d="M 262.5 2082.875 L 297.875 2082.875 L 297.875 2118.25 L 262.5 2118.25 Z M 262.5 2082.875 " clip-rule="nonzero"/></clipPath><clipPath id="4bb2676f1b"><path d="M 280.1875 2082.875 L 297.875 2100.5625 L 280.1875 2118.25 L 262.5 2100.5625 L 280.1875 2082.875 " clip-rule="nonzero"/></clipPath><clipPath id="72b2e6d5a8"><path d="M 262.5 2047.5 L 297.875 2047.5 L 297.875 2082.875 L 262.5 2082.875 Z M 262.5 2047.5 " clip-rule="nonzero"/></clipPath><clipPath id="c69dab25ec"><path d="M 280.1875 2047.5 L 297.875 2065.1875 L 280.1875 2082.875 L 262.5 2065.1875 L 280.1875 2047.5 " clip-rule="nonzero"/></clipPath><clipPath id="b6fb21b846"><path d="M 262.5 2012.125 L 297.875 2012.125 L 297.875 2047.5 L 262.5 2047.5 Z M 262.5 2012.125 " clip-rule="nonzero"/></clipPath><clipPath id="e8a18023b4"><path d="M 280.1875 2012.125 L 297.875 2029.8125 L 280.1875 2047.5 L 262.5 2029.8125 L 280.1875 2012.125 " clip-rule="nonzero"/></clipPath><clipPath id="bba884094d"><path d="M 262.5 1977.625 L 297.875 1977.625 L 297.875 2013 L 262.5 2013 Z M 262.5 1977.625 " clip-rule="nonzero"/></clipPath><clipPath id="c9b2f539ff"><path d="M 280.1875 1977.625 L 297.875 1995.3125 L 280.1875 2013 L 262.5 1995.3125 L 280.1875 1977.625 " clip-rule="nonzero"/></clipPath><clipPath id="528ad8408b"><path d="M 262.5 1942.25 L 297.875 1942.25 L 297.875 1977.625 L 262.5 1977.625 Z M 262.5 1942.25 " clip-rule="nonzero"/></clipPath><clipPath id="daedbeb944"><path d="M 280.1875 1942.25 L 297.875 1959.9375 L 280.1875 1977.625 L 262.5 1959.9375 L 280.1875 1942.25 " clip-rule="nonzero"/></clipPath><clipPath id="ae66eaf173"><path d="M 262.5 1906.875 L 297.875 1906.875 L 297.875 1942.25 L 262.5 1942.25 Z M 262.5 1906.875 " clip-rule="nonzero"/></clipPath><clipPath id="e421ec6cba"><path d="M 280.1875 1906.875 L 297.875 1924.5625 L 280.1875 1942.25 L 262.5 1924.5625 L 280.1875 1906.875 " clip-rule="nonzero"/></clipPath><clipPath id="177270cf00"><path d="M 262.5 1871.5 L 297.875 1871.5 L 297.875 1906.875 L 262.5 1906.875 Z M 262.5 1871.5 " clip-rule="nonzero"/></clipPath><clipPath id="bc13a4f390"><path d="M 280.1875 1871.5 L 297.875 1889.1875 L 280.1875 1906.875 L 262.5 1889.1875 L 280.1875 1871.5 " clip-rule="nonzero"/></clipPath><clipPath id="7ddcfe2d8d"><path d="M 262.5 1836.125 L 297.875 1836.125 L 297.875 1871.5 L 262.5 1871.5 Z M 262.5 1836.125 " clip-rule="nonzero"/></clipPath><clipPath id="ecc4cefbb4"><path d="M 280.1875 1836.125 L 297.875 1853.8125 L 280.1875 1871.5 L 262.5 1853.8125 L 280.1875 1836.125 " clip-rule="nonzero"/></clipPath><clipPath id="222cc09a5c"><path d="M 262.5 1800.75 L 297.875 1800.75 L 297.875 1836.125 L 262.5 1836.125 Z M 262.5 1800.75 " clip-rule="nonzero"/></clipPath><clipPath id="b3475ac6e4"><path d="M 280.1875 1800.75 L 297.875 1818.4375 L 280.1875 1836.125 L 262.5 1818.4375 L 280.1875 1800.75 " clip-rule="nonzero"/></clipPath><clipPath id="6151e90d05"><path d="M 262.5 1765.375 L 297.875 1765.375 L 297.875 1800.75 L 262.5 1800.75 Z M 262.5 1765.375 " clip-rule="nonzero"/></clipPath><clipPath id="afad1ffb06"><path d="M 280.1875 1765.375 L 297.875 1783.0625 L 280.1875 1800.75 L 262.5 1783.0625 L 280.1875 1765.375 " clip-rule="nonzero"/></clipPath><clipPath id="6406037329"><path d="M 262.5 1730 L 297.875 1730 L 297.875 1765.375 L 262.5 1765.375 Z M 262.5 1730 " clip-rule="nonzero"/></clipPath><clipPath id="26fa3be52c"><path d="M 280.1875 1730 L 297.875 1747.6875 L 280.1875 1765.375 L 262.5 1747.6875 L 280.1875 1730 " clip-rule="nonzero"/></clipPath><clipPath id="a768c93655"><path d="M 262.5 1695.5 L 297.875 1695.5 L 297.875 1730.875 L 262.5 1730.875 Z M 262.5 1695.5 " clip-rule="nonzero"/></clipPath><clipPath id="458307d4d8"><path d="M 280.1875 1695.5 L 297.875 1713.1875 L 280.1875 1730.875 L 262.5 1713.1875 L 280.1875 1695.5 " clip-rule="nonzero"/></clipPath><clipPath id="835a2b72bd"><path d="M 262.5 1660.125 L 297.875 1660.125 L 297.875 1695.5 L 262.5 1695.5 Z M 262.5 1660.125 " clip-rule="nonzero"/></clipPath><clipPath id="2728f835b4"><path d="M 280.1875 1660.125 L 297.875 1677.8125 L 280.1875 1695.5 L 262.5 1677.8125 L 280.1875 1660.125 " clip-rule="nonzero"/></clipPath><clipPath id="edf2246562"><path d="M 262.5 1624.75 L 297.875 1624.75 L 297.875 1660.125 L 262.5 1660.125 Z M 262.5 1624.75 " clip-rule="nonzero"/></clipPath><clipPath id="a7e57fdea6"><path d="M 280.1875 1624.75 L 297.875 1642.4375 L 280.1875 1660.125 L 262.5 1642.4375 L 280.1875 1624.75 " clip-rule="nonzero"/></clipPath><clipPath id="2ea48fe4a5"><path d="M 262.5 1589.375 L 297.875 1589.375 L 297.875 1624.75 L 262.5 1624.75 Z M 262.5 1589.375 " clip-rule="nonzero"/></clipPath><clipPath id="b67653ea43"><path d="M 280.1875 1589.375 L 297.875 1607.0625 L 280.1875 1624.75 L 262.5 1607.0625 L 280.1875 1589.375 " clip-rule="nonzero"/></clipPath><clipPath id="f9dfd44725"><path d="M 262.5 1554 L 297.875 1554 L 297.875 1589.375 L 262.5 1589.375 Z M 262.5 1554 " clip-rule="nonzero"/></clipPath><clipPath id="0e593eeae4"><path d="M 280.1875 1554 L 297.875 1571.6875 L 280.1875 1589.375 L 262.5 1571.6875 L 280.1875 1554 " clip-rule="nonzero"/></clipPath><clipPath id="9aca765a7d"><path d="M 262.5 1518.625 L 297.875 1518.625 L 297.875 1554 L 262.5 1554 Z M 262.5 1518.625 " clip-rule="nonzero"/></clipPath><clipPath id="0e8851b537"><path d="M 280.1875 1518.625 L 297.875 1536.3125 L 280.1875 1554 L 262.5 1536.3125 L 280.1875 1518.625 " clip-rule="nonzero"/></clipPath><clipPath id="9d4657cbb3"><path d="M 262.5 1483.25 L 297.875 1483.25 L 297.875 1518.625 L 262.5 1518.625 Z M 262.5 1483.25 " clip-rule="nonzero"/></clipPath><clipPath id="bbbdeb58a4"><path d="M 280.1875 1483.25 L 297.875 1500.9375 L 280.1875 1518.625 L 262.5 1500.9375 L 280.1875 1483.25 " clip-rule="nonzero"/></clipPath><clipPath id="d7ef1678e0"><path d="M 262.5 1447.875 L 297.875 1447.875 L 297.875 1483.25 L 262.5 1483.25 Z M 262.5 1447.875 " clip-rule="nonzero"/></clipPath><clipPath id="ca0d2f3744"><path d="M 280.1875 1447.875 L 297.875 1465.5625 L 280.1875 1483.25 L 262.5 1465.5625 L 280.1875 1447.875 " clip-rule="nonzero"/></clipPath><clipPath id="5ef3f55355"><path d="M 262.5 1412.5 L 297.875 1412.5 L 297.875 1447.875 L 262.5 1447.875 Z M 262.5 1412.5 " clip-rule="nonzero"/></clipPath><clipPath id="04e33a3f26"><path d="M 280.1875 1412.5 L 297.875 1430.1875 L 280.1875 1447.875 L 262.5 1430.1875 L 280.1875 1412.5 " clip-rule="nonzero"/></clipPath></defs><g clip-path="url(#1828d2d4ff)"><g clip-path="url(#cf30df06cd)"><path fill="#febbcc" d="M 262.5 5865.378906 L 297.875 5865.378906 L 297.875 5900.753906 L 262.5 5900.753906 Z M 262.5 5865.378906 " fill-opacity="1" fill-rule="nonzero"/></g></g><g clip-path="url(#d38929cd81)"><g clip-path="url(#68beba1a06)"><path fill="#febbcc" d="M 262.5 5900.753906 L 297.875 5900.753906 L 297.875 5936.128906 L 262.5 5936.128906 Z M 262.5 5900.753906 " fill-opacity="1" fill-rule="nonzero"/></g></g><g clip-path="url(#ffb986e617)"><g clip-path="url(#afad43c194)"><path fill="#febbcc" d="M 262.5 5299.378906 L 297.875 5299.378906 L 297.875 5334.753906 L 262.5 5334.753906 Z M 262.5 5299.378906 " fill-opacity="1" fill-rule="nonzero"/></g></g><g clip-path="url(#85037ce87c)"><g clip-path="url(#87b70587d0)"><path fill="#febbcc" d="M 262.5 5334.753906 L 297.875 5334.753906 L 297.875 5370.128906 L 262.5 5370.128906 Z M 262.5 5334.753906 " fill-opacity="1" fill-rule="nonzero"/></g></g><g clip-path="url(#61c32006c2)"><g clip-path="url(#702cc433a3)"><path fill="#febbcc" d="M 262.5 5370.128906 L 297.875 5370.128906 L 297.875 5405.503906 L 262.5 5405.503906 Z M 262.5 5370.128906 " fill-opacity="1" fill-rule="nonzero"/></g></g><g clip-path="url(#286e92994b)"><g clip-path="url(#bba8ec45d3)"><path fill="#febbcc" d="M 262.5 5405.503906 L 297.875 5405.503906 L 297.875 5440.878906 L 262.5 5440.878906 Z M 262.5 5405.503906 " fill-opacity="1" fill-rule="nonzero"/></g></g><g clip-path="url(#a2d3274005)"><g clip-path="url(#43a63b367f)"><path fill="#febbcc" d="M 262.5 5440.878906 L 297.875 5440.878906 L 297.875 5476.253906 L 262.5 5476.253906 Z M 262.5 5440.878906 " fill-opacity="1" fill-rule="nonzero"/></g></g><g clip-path="url(#a7df60c132)"><g clip-path="url(#76b0e1a886)"><path fill="#febbcc" d="M 262.5 5476.253906 L 297.875 5476.253906 L 297.875 5511.628906 L 262.5 5511.628906 Z M 262.5 5476.253906 " fill-opacity="1" fill-rule="nonzero"/></g></g><g clip-path="url(#766885dc7c)"><g clip-path="url(#1e42192ac2)"><path fill="#febbcc" d="M 262.5 5511.628906 L 297.875 5511.628906 L 297.875 5547.003906 L 262.5 5547.003906 Z M 262.5 5511.628906 " fill-opacity="1" fill-rule="nonzero"/></g></g><g clip-path="url(#c40a8be5f1)"><g clip-path="url(#587b94af30)"><path fill="#febbcc" d="M 262.5 5547.003906 L 297.875 5547.003906 L 297.875 5582.378906 L 262.5 5582.378906 Z M 262.5 5547.003906 " fill-opacity="1" fill-rule="nonzero"/></g></g><g clip-path="url(#25381b0edc)"><g clip-path="url(#5e480e51f6)"><path fill="#febbcc" d="M 262.5 5582.378906 L 297.875 5582.378906 L 297.875 5617.753906 L 262.5 5617.753906 Z M 262.5 5582.378906 " fill-opacity="1" fill-rule="nonzero"/></g></g><g clip-path="url(#6defbb993e)"><g clip-path="url(#2ab895cd5f)"><path fill="#febbcc" d="M 262.5 5617.753906 L 297.875 5617.753906 L 297.875 5653.128906 L 262.5 5653.128906 Z M 262.5 5617.753906 " fill-opacity="1" fill-rule="nonzero"/></g></g><g clip-path="url(#4cc1938d42)"><g clip-path="url(#d0629d1753)"><path fill="#febbcc" d="M 262.5 5653.128906 L 297.875 5653.128906 L 297.875 5688.503906 L 262.5 5688.503906 Z M 262.5 5653.128906 " fill-opacity="1" fill-rule="nonzero"/></g></g><g clip-path="url(#2609b2f61e)"><g clip-path="url(#5c7f51f217)"><path fill="#febbcc" d="M 262.5 5688.503906 L 297.875 5688.503906 L 297.875 5723.878906 L 262.5 5723.878906 Z M 262.5 5688.503906 " fill-opacity="1" fill-rule="nonzero"/></g></g><g clip-path="url(#2941781c8f)"><g clip-path="url(#fbbfc98304)"><path fill="#febbcc" d="M 262.5 5723.878906 L 297.875 5723.878906 L 297.875 5759.253906 L 262.5 5759.253906 Z M 262.5 5723.878906 " fill-opacity="1" fill-rule="nonzero"/></g></g><g clip-path="url(#c4226a05c1)"><g clip-path="url(#8284f63257)"><path fill="#febbcc" d="M 262.5 5759.253906 L 297.875 5759.253906 L 297.875 5794.628906 L 262.5 5794.628906 Z M 262.5 5759.253906 " fill-opacity="1" fill-rule="nonzero"/></g></g><g clip-path="url(#180d8c2e0f)"><g clip-path="url(#d913f3366c)"><path fill="#febbcc" d="M 262.5 5794.628906 L 297.875 5794.628906 L 297.875 5830.003906 L 262.5 5830.003906 Z M 262.5 5794.628906 " fill-opacity="1" fill-rule="nonzero"/></g></g><g clip-path="url(#8e2d0c57d6)"><g clip-path="url(#d8c2344060)"><path fill="#febbcc" d="M 262.5 5830.003906 L 297.875 5830.003906 L 297.875 5865.378906 L 262.5 5865.378906 Z M 262.5 5830.003906 " fill-opacity="1" fill-rule="nonzero"/></g></g><g clip-path="url(#1157f89b08)"><g clip-path="url(#e743b7b633)"><path fill="#febbcc" d="M 262.5 5122.503906 L 297.875 5122.503906 L 297.875 5157.878906 L 262.5 5157.878906 Z M 262.5 5122.503906 " fill-opacity="1" fill-rule="nonzero"/></g></g><g clip-path="url(#e67b198eb1)"><g clip-path="url(#99e22ea341)"><path fill="#febbcc" d="M 262.5 5157.878906 L 297.875 5157.878906 L 297.875 5193.253906 L 262.5 5193.253906 Z M 262.5 5157.878906 " fill-opacity="1" fill-rule="nonzero"/></g></g><g clip-path="url(#38cb223c57)"><g clip-path="url(#84d917fff3)"><path fill="#febbcc" d="M 262.5 5193.253906 L 297.875 5193.253906 L 297.875 5228.628906 L 262.5 5228.628906 Z M 262.5 5193.253906 " fill-opacity="1" fill-rule="nonzero"/></g></g><g clip-path="url(#93a41db497)"><g clip-path="url(#298b3dedda)"><path fill="#febbcc" d="M 262.5 5228.628906 L 297.875 5228.628906 L 297.875 5264.003906 L 262.5 5264.003906 Z M 262.5 5228.628906 " fill-opacity="1" fill-rule="nonzero"/></g></g><g clip-path="url(#20770c8522)"><g clip-path="url(#3f12a37ae0)"><path fill="#febbcc" d="M 262.5 5264.003906 L 297.875 5264.003906 L 297.875 5299.378906 L 262.5 5299.378906 Z M 262.5 5264.003906 " fill-opacity="1" fill-rule="nonzero"/></g></g><g clip-path="url(#9d16e1394c)"><g clip-path="url(#4013210677)"><path fill="#febbcc" d="M 262.5 4981.003906 L 297.875 4981.003906 L 297.875 5016.378906 L 262.5 5016.378906 Z M 262.5 4981.003906 " fill-opacity="1" fill-rule="nonzero"/></g></g><g clip-path="url(#473b9bb284)"><g clip-path="url(#2c964fdecd)"><path fill="#febbcc" d="M 262.5 5016.378906 L 297.875 5016.378906 L 297.875 5051.753906 L 262.5 5051.753906 Z M 262.5 5016.378906 " fill-opacity="1" fill-rule="nonzero"/></g></g><g clip-path="url(#885d46a095)"><g clip-path="url(#bb25a9cb97)"><path fill="#febbcc" d="M 262.5 5051.753906 L 297.875 5051.753906 L 297.875 5087.128906 L 262.5 5087.128906 Z M 262.5 5051.753906 " fill-opacity="1" fill-rule="nonzero"/></g></g><g clip-path="url(#73173fa8d2)"><g clip-path="url(#612f86876a)"><path fill="#febbcc" d="M 262.5 5087.128906 L 297.875 5087.128906 L 297.875 5122.503906 L 262.5 5122.503906 Z M 262.5 5087.128906 " fill-opacity="1" fill-rule="nonzero"/></g></g><g clip-path="url(#779fc74f68)"><g clip-path="url(#46880071f6)"><path fill="#febbcc" d="M 262.5 4945.628906 L 297.875 4945.628906 L 297.875 4981.003906 L 262.5 4981.003906 Z M 262.5 4945.628906 " fill-opacity="1" fill-rule="nonzero"/></g></g><g clip-path="url(#d3b01546e8)"><g clip-path="url(#6d1d937ea6)"><path fill="#febbcc" d="M 262.5 3000 L 297.875 3000 L 297.875 3035.375 L 262.5 3035.375 Z M 262.5 3000 " fill-opacity="1" fill-rule="nonzero"/></g></g><g clip-path="url(#992d942760)"><g clip-path="url(#00e99a950d)"><path fill="#febbcc" d="M 262.5 3035.375 L 297.875 3035.375 L 297.875 3070.75 L 262.5 3070.75 Z M 262.5 3035.375 " fill-opacity="1" fill-rule="nonzero"/></g></g><g clip-path="url(#592c3fe167)"><g clip-path="url(#0b7d83acc5)"><path fill="#febbcc" d="M 262.5 3070.75 L 297.875 3070.75 L 297.875 3106.125 L 262.5 3106.125 Z M 262.5 3070.75 " fill-opacity="1" fill-rule="nonzero"/></g></g><g clip-path="url(#751a0eefef)"><g clip-path="url(#490616f0ec)"><path fill="#febbcc" d="M 262.5 3106.125 L 297.875 3106.125 L 297.875 3141.5 L 262.5 3141.5 Z M 262.5 3106.125 " fill-opacity="1" fill-rule="nonzero"/></g></g><g clip-path="url(#cd6ebfaeba)"><g clip-path="url(#c0bff980e6)"><path fill="#febbcc" d="M 262.5 3141.5 L 297.875 3141.5 L 297.875 3176.875 L 262.5 3176.875 Z M 262.5 3141.5 " fill-opacity="1" fill-rule="nonzero"/></g></g><g clip-path="url(#b34d08fd59)"><g clip-path="url(#95b9eb6905)"><path fill="#febbcc" d="M 262.5 3176.875 L 297.875 3176.875 L 297.875 3212.25 L 262.5 3212.25 Z M 262.5 3176.875 " fill-opacity="1" fill-rule="nonzero"/></g></g><g clip-path="url(#867f6c4ac2)"><g clip-path="url(#a5128de186)"><path fill="#febbcc" d="M 262.5 3212.25 L 297.875 3212.25 L 297.875 3247.625 L 262.5 3247.625 Z M 262.5 3212.25 " fill-opacity="1" fill-rule="nonzero"/></g></g><g clip-path="url(#d94a7594cf)"><g clip-path="url(#4cda6eefb1)"><path fill="#febbcc" d="M 262.5 3247.625 L 297.875 3247.625 L 297.875 3283 L 262.5 3283 Z M 262.5 3247.625 " fill-opacity="1" fill-rule="nonzero"/></g></g><g clip-path="url(#b33b45df81)"><g clip-path="url(#d2c758148a)"><path fill="#febbcc" d="M 262.5 3283 L 297.875 3283 L 297.875 3318.375 L 262.5 3318.375 Z M 262.5 3283 " fill-opacity="1" fill-rule="nonzero"/></g></g><g clip-path="url(#f0eb5e67bd)"><g clip-path="url(#8829a3bf5b)"><path fill="#febbcc" d="M 262.5 3318.375 L 297.875 3318.375 L 297.875 3353.75 L 262.5 3353.75 Z M 262.5 3318.375 " fill-opacity="1" fill-rule="nonzero"/></g></g><g clip-path="url(#ceddeabb8f)"><g clip-path="url(#907b2535ef)"><path fill="#febbcc" d="M 262.5 3353.75 L 297.875 3353.75 L 297.875 3389.125 L 262.5 3389.125 Z M 262.5 3353.75 " fill-opacity="1" fill-rule="nonzero"/></g></g><g clip-path="url(#34c9d99aac)"><g clip-path="url(#a49f8789bf)"><path fill="#febbcc" d="M 262.5 3389.125 L 297.875 3389.125 L 297.875 3424.5 L 262.5 3424.5 Z M 262.5 3389.125 " fill-opacity="1" fill-rule="nonzero"/></g></g><g clip-path="url(#dd7441be17)"><g clip-path="url(#1f370259e1)"><path fill="#febbcc" d="M 262.5 3424.5 L 297.875 3424.5 L 297.875 3459.875 L 262.5 3459.875 Z M 262.5 3424.5 " fill-opacity="1" fill-rule="nonzero"/></g></g><g clip-path="url(#d37f0f6705)"><g clip-path="url(#ecc02c020b)"><path fill="#febbcc" d="M 262.5 3459.875 L 297.875 3459.875 L 297.875 3495.25 L 262.5 3495.25 Z M 262.5 3459.875 " fill-opacity="1" fill-rule="nonzero"/></g></g><g clip-path="url(#fd81364098)"><g clip-path="url(#e87f347068)"><path fill="#febbcc" d="M 262.5 3495.25 L 297.875 3495.25 L 297.875 3530.625 L 262.5 3530.625 Z M 262.5 3495.25 " fill-opacity="1" fill-rule="nonzero"/></g></g><g clip-path="url(#545689cd76)"><g clip-path="url(#3ec85e62f6)"><path fill="#febbcc" d="M 262.5 3530.625 L 297.875 3530.625 L 297.875 3566 L 262.5 3566 Z M 262.5 3530.625 " fill-opacity="1" fill-rule="nonzero"/></g></g><g clip-path="url(#16b83f4534)"><g clip-path="url(#3beeffeb78)"><path fill="#febbcc" d="M 262.5 3566 L 297.875 3566 L 297.875 3601.375 L 262.5 3601.375 Z M 262.5 3566 " fill-opacity="1" fill-rule="nonzero"/></g></g><g clip-path="url(#fcfc68ea29)"><g clip-path="url(#16b315a41c)"><path fill="#febbcc" d="M 262.5 3601.375 L 297.875 3601.375 L 297.875 3636.75 L 262.5 3636.75 Z M 262.5 3601.375 " fill-opacity="1" fill-rule="nonzero"/></g></g><g clip-path="url(#cb092b965f)"><g clip-path="url(#b49bf9ece9)"><path fill="#febbcc" d="M 262.5 3636.75 L 297.875 3636.75 L 297.875 3672.125 L 262.5 3672.125 Z M 262.5 3636.75 " fill-opacity="1" fill-rule="nonzero"/></g></g><g clip-path="url(#3f570c73d7)"><g clip-path="url(#e98c80a2f9)"><path fill="#febbcc" d="M 262.5 3672.125 L 297.875 3672.125 L 297.875 3707.5 L 262.5 3707.5 Z M 262.5 3672.125 " fill-opacity="1" fill-rule="nonzero"/></g></g><g clip-path="url(#57a0c249b8)"><g clip-path="url(#e7c63e62fe)"><path fill="#febbcc" d="M 262.5 3707.5 L 297.875 3707.5 L 297.875 3742.875 L 262.5 3742.875 Z M 262.5 3707.5 " fill-opacity="1" fill-rule="nonzero"/></g></g><g clip-path="url(#d406be579c)"><g clip-path="url(#eaaa6ecc09)"><path fill="#febbcc" d="M 262.5 3742.875 L 297.875 3742.875 L 297.875 3778.25 L 262.5 3778.25 Z M 262.5 3742.875 " fill-opacity="1" fill-rule="nonzero"/></g></g><g clip-path="url(#fcc9387aa9)"><g clip-path="url(#50ee818745)"><path fill="#febbcc" d="M 262.5 3778.25 L 297.875 3778.25 L 297.875 3813.625 L 262.5 3813.625 Z M 262.5 3778.25 " fill-opacity="1" fill-rule="nonzero"/></g></g><g clip-path="url(#a950f812e7)"><g clip-path="url(#9ef5ab4939)"><path fill="#febbcc" d="M 262.5 3813.625 L 297.875 3813.625 L 297.875 3849 L 262.5 3849 Z M 262.5 3813.625 " fill-opacity="1" fill-rule="nonzero"/></g></g><g clip-path="url(#4165912f0c)"><g clip-path="url(#960bf6efd0)"><path fill="#febbcc" d="M 262.5 3849 L 297.875 3849 L 297.875 3884.375 L 262.5 3884.375 Z M 262.5 3849 " fill-opacity="1" fill-rule="nonzero"/></g></g><g clip-path="url(#1b82818e42)"><g clip-path="url(#a7a805815c)"><path fill="#febbcc" d="M 262.5 3884.375 L 297.875 3884.375 L 297.875 3919.75 L 262.5 3919.75 Z M 262.5 3884.375 " fill-opacity="1" fill-rule="nonzero"/></g></g><g clip-path="url(#fe4d714232)"><g clip-path="url(#8f9371e69c)"><path fill="#febbcc" d="M 262.5 3919.75 L 297.875 3919.75 L 297.875 3955.125 L 262.5 3955.125 Z M 262.5 3919.75 " fill-opacity="1" fill-rule="nonzero"/></g></g><g clip-path="url(#7b42047474)"><g clip-path="url(#6ba1ed14e6)"><path fill="#febbcc" d="M 262.5 3955.125 L 297.875 3955.125 L 297.875 3990.5 L 262.5 3990.5 Z M 262.5 3955.125 " fill-opacity="1" fill-rule="nonzero"/></g></g><g clip-path="url(#b16216edc8)"><g clip-path="url(#abb277fcf7)"><path fill="#febbcc" d="M 262.5 3990.5 L 297.875 3990.5 L 297.875 4025.875 L 262.5 4025.875 Z M 262.5 3990.5 " fill-opacity="1" fill-rule="nonzero"/></g></g><g clip-path="url(#6f2b9cfc18)"><g clip-path="url(#a003ec64d0)"><path fill="#febbcc" d="M 262.5 4025.878906 L 297.875 4025.878906 L 297.875 4061.253906 L 262.5 4061.253906 Z M 262.5 4025.878906 " fill-opacity="1" fill-rule="nonzero"/></g></g><g clip-path="url(#913176d688)"><g clip-path="url(#3e34cb3e6c)"><path fill="#febbcc" d="M 262.5 4061.253906 L 297.875 4061.253906 L 297.875 4096.628906 L 262.5 4096.628906 Z M 262.5 4061.253906 " fill-opacity="1" fill-rule="nonzero"/></g></g><g clip-path="url(#d922306d6c)"><g clip-path="url(#218cca3b9c)"><path fill="#febbcc" d="M 262.5 4096.625 L 297.875 4096.625 L 297.875 4132 L 262.5 4132 Z M 262.5 4096.625 " fill-opacity="1" fill-rule="nonzero"/></g></g><g clip-path="url(#04832c3a6e)"><g clip-path="url(#140bb134e1)"><path fill="#febbcc" d="M 262.5 4132.003906 L 297.875 4132.003906 L 297.875 4167.378906 L 262.5 4167.378906 Z M 262.5 4132.003906 " fill-opacity="1" fill-rule="nonzero"/></g></g><g clip-path="url(#77af717029)"><g clip-path="url(#debfa65257)"><path fill="#febbcc" d="M 262.5 4167.378906 L 297.875 4167.378906 L 297.875 4202.753906 L 262.5 4202.753906 Z M 262.5 4167.378906 " fill-opacity="1" fill-rule="nonzero"/></g></g><g clip-path="url(#022cf2eab3)"><g clip-path="url(#0f8d028a15)"><path fill="#febbcc" d="M 262.5 4202.753906 L 297.875 4202.753906 L 297.875 4238.128906 L 262.5 4238.128906 Z M 262.5 4202.753906 " fill-opacity="1" fill-rule="nonzero"/></g></g><g clip-path="url(#0543334cd4)"><g clip-path="url(#3170416053)"><path fill="#febbcc" d="M 262.5 4238.128906 L 297.875 4238.128906 L 297.875 4273.503906 L 262.5 4273.503906 Z M 262.5 4238.128906 " fill-opacity="1" fill-rule="nonzero"/></g></g><g clip-path="url(#cc3378263f)"><g clip-path="url(#c3815481ed)"><path fill="#febbcc" d="M 262.5 4273.503906 L 297.875 4273.503906 L 297.875 4308.878906 L 262.5 4308.878906 Z M 262.5 4273.503906 " fill-opacity="1" fill-rule="nonzero"/></g></g><g clip-path="url(#db1ca03f1c)"><g clip-path="url(#0a1bb2b500)"><path fill="#febbcc" d="M 262.5 4308.878906 L 297.875 4308.878906 L 297.875 4344.253906 L 262.5 4344.253906 Z M 262.5 4308.878906 " fill-opacity="1" fill-rule="nonzero"/></g></g><g clip-path="url(#a165fb241a)"><g clip-path="url(#b4b10bcfef)"><path fill="#febbcc" d="M 262.5 4344.253906 L 297.875 4344.253906 L 297.875 4379.628906 L 262.5 4379.628906 Z M 262.5 4344.253906 " fill-opacity="1" fill-rule="nonzero"/></g></g><g clip-path="url(#224a58ec53)"><g clip-path="url(#b7c2203735)"><path fill="#febbcc" d="M 262.5 4379.628906 L 297.875 4379.628906 L 297.875 4415.003906 L 262.5 4415.003906 Z M 262.5 4379.628906 " fill-opacity="1" fill-rule="nonzero"/></g></g><g clip-path="url(#afefe290e1)"><g clip-path="url(#c10f727133)"><path fill="#febbcc" d="M 262.5 4415.003906 L 297.875 4415.003906 L 297.875 4450.378906 L 262.5 4450.378906 Z M 262.5 4415.003906 " fill-opacity="1" fill-rule="nonzero"/></g></g><g clip-path="url(#6cf5b35b78)"><g clip-path="url(#c6ec9cc3e5)"><path fill="#febbcc" d="M 262.5 4450.378906 L 297.875 4450.378906 L 297.875 4485.753906 L 262.5 4485.753906 Z M 262.5 4450.378906 " fill-opacity="1" fill-rule="nonzero"/></g></g><g clip-path="url(#0d9e239249)"><g clip-path="url(#9802ac5255)"><path fill="#febbcc" d="M 262.5 4485.753906 L 297.875 4485.753906 L 297.875 4521.128906 L 262.5 4521.128906 Z M 262.5 4485.753906 " fill-opacity="1" fill-rule="nonzero"/></g></g><g clip-path="url(#92488a2ab2)"><g clip-path="url(#c15dc99af7)"><path fill="#febbcc" d="M 262.5 4521.128906 L 297.875 4521.128906 L 297.875 4556.503906 L 262.5 4556.503906 Z M 262.5 4521.128906 " fill-opacity="1" fill-rule="nonzero"/></g></g><g clip-path="url(#98b2690adb)"><g clip-path="url(#d7b44eccfd)"><path fill="#febbcc" d="M 262.5 4556.503906 L 297.875 4556.503906 L 297.875 4591.878906 L 262.5 4591.878906 Z M 262.5 4556.503906 " fill-opacity="1" fill-rule="nonzero"/></g></g><g clip-path="url(#df61096445)"><g clip-path="url(#87045cc0d2)"><path fill="#febbcc" d="M 262.5 4591.878906 L 297.875 4591.878906 L 297.875 4627.253906 L 262.5 4627.253906 Z M 262.5 4591.878906 " fill-opacity="1" fill-rule="nonzero"/></g></g><g clip-path="url(#48723fbaf1)"><g clip-path="url(#19bbe6387c)"><path fill="#febbcc" d="M 262.5 4627.253906 L 297.875 4627.253906 L 297.875 4662.628906 L 262.5 4662.628906 Z M 262.5 4627.253906 " fill-opacity="1" fill-rule="nonzero"/></g></g><g clip-path="url(#fd93427364)"><g clip-path="url(#10b0aaa6d1)"><path fill="#febbcc" d="M 262.5 4662.628906 L 297.875 4662.628906 L 297.875 4698.003906 L 262.5 4698.003906 Z M 262.5 4662.628906 " fill-opacity="1" fill-rule="nonzero"/></g></g><g clip-path="url(#987808bd85)"><g clip-path="url(#ae73934e44)"><path fill="#febbcc" d="M 262.5 4698.003906 L 297.875 4698.003906 L 297.875 4733.378906 L 262.5 4733.378906 Z M 262.5 4698.003906 " fill-opacity="1" fill-rule="nonzero"/></g></g><g clip-path="url(#f391bd0dba)"><g clip-path="url(#ef186631f8)"><path fill="#febbcc" d="M 262.5 4733.378906 L 297.875 4733.378906 L 297.875 4768.753906 L 262.5 4768.753906 Z M 262.5 4733.378906 " fill-opacity="1" fill-rule="nonzero"/></g></g><g clip-path="url(#c0d24fac44)"><g clip-path="url(#a551a0709a)"><path fill="#febbcc" d="M 262.5 4768.753906 L 297.875 4768.753906 L 297.875 4804.128906 L 262.5 4804.128906 Z M 262.5 4768.753906 " fill-opacity="1" fill-rule="nonzero"/></g></g><g clip-path="url(#9159d1ab6d)"><g clip-path="url(#d50f7edef8)"><path fill="#febbcc" d="M 262.5 4804.128906 L 297.875 4804.128906 L 297.875 4839.503906 L 262.5 4839.503906 Z M 262.5 4804.128906 " fill-opacity="1" fill-rule="nonzero"/></g></g><g clip-path="url(#496051340e)"><g clip-path="url(#3e482e9411)"><path fill="#febbcc" d="M 262.5 4839.503906 L 297.875 4839.503906 L 297.875 4874.878906 L 262.5 4874.878906 Z M 262.5 4839.503906 " fill-opacity="1" fill-rule="nonzero"/></g></g><g clip-path="url(#84f28b824a)"><g clip-path="url(#aa17fa00a0)"><path fill="#febbcc" d="M 262.5 4874.878906 L 297.875 4874.878906 L 297.875 4910.253906 L 262.5 4910.253906 Z M 262.5 4874.878906 " fill-opacity="1" fill-rule="nonzero"/></g></g><g clip-path="url(#bd6bd14413)"><g clip-path="url(#e2de5ca10d)"><path fill="#febbcc" d="M 262.5 4910.253906 L 297.875 4910.253906 L 297.875 4945.628906 L 262.5 4945.628906 Z M 262.5 4910.253906 " fill-opacity="1" fill-rule="nonzero"/></g></g><g clip-path="url(#dd7f069f8e)"><g clip-path="url(#bb9a64f5c9)"><path fill="#febbcc" d="M 262.5 2964.75 L 297.875 2964.75 L 297.875 3000.125 L 262.5 3000.125 Z M 262.5 2964.75 " fill-opacity="1" fill-rule="nonzero"/></g></g><g clip-path="url(#fc16e7c3d2)"><g clip-path="url(#a1b9cac27f)"><path fill="#febbcc" d="M 262.5 2929.5 L 297.875 2929.5 L 297.875 2964.875 L 262.5 2964.875 Z M 262.5 2929.5 " fill-opacity="1" fill-rule="nonzero"/></g></g><g clip-path="url(#b20dd3d430)"><g clip-path="url(#5fbe6c6bc1)"><path fill="#febbcc" d="M 262.5 2894.25 L 297.875 2894.25 L 297.875 2929.625 L 262.5 2929.625 Z M 262.5 2894.25 " fill-opacity="1" fill-rule="nonzero"/></g></g><g clip-path="url(#f20e507470)"><g clip-path="url(#5d5d2e0bff)"><path fill="#febbcc" d="M 262.5 2859 L 297.875 2859 L 297.875 2894.375 L 262.5 2894.375 Z M 262.5 2859 " fill-opacity="1" fill-rule="nonzero"/></g></g><g clip-path="url(#764173cf47)"><g clip-path="url(#babf603351)"><path fill="#febbcc" d="M 262.5 2823.75 L 297.875 2823.75 L 297.875 2859.125 L 262.5 2859.125 Z M 262.5 2823.75 " fill-opacity="1" fill-rule="nonzero"/></g></g><g clip-path="url(#50d85def95)"><g clip-path="url(#806461850d)"><path fill="#febbcc" d="M 262.5 2788.5 L 297.875 2788.5 L 297.875 2823.875 L 262.5 2823.875 Z M 262.5 2788.5 " fill-opacity="1" fill-rule="nonzero"/></g></g><g clip-path="url(#53f459c393)"><g clip-path="url(#ef9faca400)"><path fill="#febbcc" d="M 262.5 2753.25 L 297.875 2753.25 L 297.875 2788.625 L 262.5 2788.625 Z M 262.5 2753.25 " fill-opacity="1" fill-rule="nonzero"/></g></g><g clip-path="url(#60340a6646)"><g clip-path="url(#fdcb67933c)"><path fill="#febbcc" d="M 262.5 2718 L 297.875 2718 L 297.875 2753.375 L 262.5 2753.375 Z M 262.5 2718 " fill-opacity="1" fill-rule="nonzero"/></g></g><g clip-path="url(#577230a25d)"><g clip-path="url(#4bed2af648)"><path fill="#febbcc" d="M 262.5 2682.75 L 297.875 2682.75 L 297.875 2718.125 L 262.5 2718.125 Z M 262.5 2682.75 " fill-opacity="1" fill-rule="nonzero"/></g></g><g clip-path="url(#0ff890d8a6)"><g clip-path="url(#1e57a06aaa)"><path fill="#febbcc" d="M 262.5 2647.5 L 297.875 2647.5 L 297.875 2682.875 L 262.5 2682.875 Z M 262.5 2647.5 " fill-opacity="1" fill-rule="nonzero"/></g></g><g clip-path="url(#0317c8c1bb)"><g clip-path="url(#3818b5ca36)"><path fill="#febbcc" d="M 262.5 2612.25 L 297.875 2612.25 L 297.875 2647.625 L 262.5 2647.625 Z M 262.5 2612.25 " fill-opacity="1" fill-rule="nonzero"/></g></g><g clip-path="url(#b89858fae9)"><g clip-path="url(#26f1c5781a)"><path fill="#febbcc" d="M 262.5 2577 L 297.875 2577 L 297.875 2612.375 L 262.5 2612.375 Z M 262.5 2577 " fill-opacity="1" fill-rule="nonzero"/></g></g><g clip-path="url(#4e321b8e0d)"><g clip-path="url(#393bc6c48f)"><path fill="#febbcc" d="M 262.5 2541.75 L 297.875 2541.75 L 297.875 2577.125 L 262.5 2577.125 Z M 262.5 2541.75 " fill-opacity="1" fill-rule="nonzero"/></g></g><g clip-path="url(#c8a46c05df)"><g clip-path="url(#8fbbf9a7a4)"><path fill="#febbcc" d="M 262.5 2506.5 L 297.875 2506.5 L 297.875 2541.875 L 262.5 2541.875 Z M 262.5 2506.5 " fill-opacity="1" fill-rule="nonzero"/></g></g><g clip-path="url(#9757ff09ad)"><g clip-path="url(#c2559b3fcd)"><path fill="#febbcc" d="M 262.5 2471.25 L 297.875 2471.25 L 297.875 2506.625 L 262.5 2506.625 Z M 262.5 2471.25 " fill-opacity="1" fill-rule="nonzero"/></g></g><g clip-path="url(#5a40980f63)"><g clip-path="url(#bc7c90dd38)"><path fill="#febbcc" d="M 262.5 2436 L 297.875 2436 L 297.875 2471.375 L 262.5 2471.375 Z M 262.5 2436 " fill-opacity="1" fill-rule="nonzero"/></g></g><g clip-path="url(#f685ff91c5)"><g clip-path="url(#e7cbc05dbe)"><path fill="#febbcc" d="M 262.5 2400.75 L 297.875 2400.75 L 297.875 2436.125 L 262.5 2436.125 Z M 262.5 2400.75 " fill-opacity="1" fill-rule="nonzero"/></g></g><g clip-path="url(#b70079f12a)"><g clip-path="url(#037290dfa5)"><path fill="#febbcc" d="M 262.5 2365.5 L 297.875 2365.5 L 297.875 2400.875 L 262.5 2400.875 Z M 262.5 2365.5 " fill-opacity="1" fill-rule="nonzero"/></g></g><g clip-path="url(#2fb1e2f155)"><g clip-path="url(#a36d25bce6)"><path fill="#febbcc" d="M 262.5 2330.25 L 297.875 2330.25 L 297.875 2365.625 L 262.5 2365.625 Z M 262.5 2330.25 " fill-opacity="1" fill-rule="nonzero"/></g></g><g clip-path="url(#6752dc2840)"><g clip-path="url(#d112928aff)"><path fill="#febbcc" d="M 262.5 2295 L 297.875 2295 L 297.875 2330.375 L 262.5 2330.375 Z M 262.5 2295 " fill-opacity="1" fill-rule="nonzero"/></g></g><g clip-path="url(#d547d1c1bd)"><g clip-path="url(#8b5a165277)"><path fill="#febbcc" d="M 262.5 2259.75 L 297.875 2259.75 L 297.875 2295.125 L 262.5 2295.125 Z M 262.5 2259.75 " fill-opacity="1" fill-rule="nonzero"/></g></g><g clip-path="url(#c30af2c164)"><g clip-path="url(#95250668d4)"><path fill="#febbcc" d="M 262.5 2224.375 L 297.875 2224.375 L 297.875 2259.75 L 262.5 2259.75 Z M 262.5 2224.375 " fill-opacity="1" fill-rule="nonzero"/></g></g><g clip-path="url(#9c6eccdd52)"><g clip-path="url(#6a9df16498)"><path fill="#febbcc" d="M 262.5 2189 L 297.875 2189 L 297.875 2224.375 L 262.5 2224.375 Z M 262.5 2189 " fill-opacity="1" fill-rule="nonzero"/></g></g><g clip-path="url(#67cff73ae9)"><g clip-path="url(#e0094524a3)"><path fill="#febbcc" d="M 262.5 2153.625 L 297.875 2153.625 L 297.875 2189 L 262.5 2189 Z M 262.5 2153.625 " fill-opacity="1" fill-rule="nonzero"/></g></g><g clip-path="url(#271907a0d1)"><g clip-path="url(#002cbb3bdf)"><path fill="#febbcc" d="M 262.5 2118.25 L 297.875 2118.25 L 297.875 2153.625 L 262.5 2153.625 Z M 262.5 2118.25 " fill-opacity="1" fill-rule="nonzero"/></g></g><g clip-path="url(#3e08effb11)"><g clip-path="url(#4bb2676f1b)"><path fill="#febbcc" d="M 262.5 2082.875 L 297.875 2082.875 L 297.875 2118.25 L 262.5 2118.25 Z M 262.5 2082.875 " fill-opacity="1" fill-rule="nonzero"/></g></g><g clip-path="url(#72b2e6d5a8)"><g clip-path="url(#c69dab25ec)"><path fill="#febbcc" d="M 262.5 2047.5 L 297.875 2047.5 L 297.875 2082.875 L 262.5 2082.875 Z M 262.5 2047.5 " fill-opacity="1" fill-rule="nonzero"/></g></g><g clip-path="url(#b6fb21b846)"><g clip-path="url(#e8a18023b4)"><path fill="#febbcc" d="M 262.5 2012.125 L 297.875 2012.125 L 297.875 2047.5 L 262.5 2047.5 Z M 262.5 2012.125 " fill-opacity="1" fill-rule="nonzero"/></g></g><g clip-path="url(#bba884094d)"><g clip-path="url(#c9b2f539ff)"><path fill="#febbcc" d="M 262.5 1977.625 L 297.875 1977.625 L 297.875 2013 L 262.5 2013 Z M 262.5 1977.625 " fill-opacity="1" fill-rule="nonzero"/></g></g><g clip-path="url(#528ad8408b)"><g clip-path="url(#daedbeb944)"><path fill="#febbcc" d="M 262.5 1942.25 L 297.875 1942.25 L 297.875 1977.625 L 262.5 1977.625 Z M 262.5 1942.25 " fill-opacity="1" fill-rule="nonzero"/></g></g><g clip-path="url(#ae66eaf173)"><g clip-path="url(#e421ec6cba)"><path fill="#febbcc" d="M 262.5 1906.875 L 297.875 1906.875 L 297.875 1942.25 L 262.5 1942.25 Z M 262.5 1906.875 " fill-opacity="1" fill-rule="nonzero"/></g></g><g clip-path="url(#177270cf00)"><g clip-path="url(#bc13a4f390)"><path fill="#febbcc" d="M 262.5 1871.5 L 297.875 1871.5 L 297.875 1906.875 L 262.5 1906.875 Z M 262.5 1871.5 " fill-opacity="1" fill-rule="nonzero"/></g></g><g clip-path="url(#7ddcfe2d8d)"><g clip-path="url(#ecc4cefbb4)"><path fill="#febbcc" d="M 262.5 1836.125 L 297.875 1836.125 L 297.875 1871.5 L 262.5 1871.5 Z M 262.5 1836.125 " fill-opacity="1" fill-rule="nonzero"/></g></g><g clip-path="url(#222cc09a5c)"><g clip-path="url(#b3475ac6e4)"><path fill="#febbcc" d="M 262.5 1800.75 L 297.875 1800.75 L 297.875 1836.125 L 262.5 1836.125 Z M 262.5 1800.75 " fill-opacity="1" fill-rule="nonzero"/></g></g><g clip-path="url(#6151e90d05)"><g clip-path="url(#afad1ffb06)"><path fill="#febbcc" d="M 262.5 1765.375 L 297.875 1765.375 L 297.875 1800.75 L 262.5 1800.75 Z M 262.5 1765.375 " fill-opacity="1" fill-rule="nonzero"/></g></g><g clip-path="url(#6406037329)"><g clip-path="url(#26fa3be52c)"><path fill="#febbcc" d="M 262.5 1730 L 297.875 1730 L 297.875 1765.375 L 262.5 1765.375 Z M 262.5 1730 " fill-opacity="1" fill-rule="nonzero"/></g></g><g clip-path="url(#a768c93655)"><g clip-path="url(#458307d4d8)"><path fill="#febbcc" d="M 262.5 1695.5 L 297.875 1695.5 L 297.875 1730.875 L 262.5 1730.875 Z M 262.5 1695.5 " fill-opacity="1" fill-rule="nonzero"/></g></g><g clip-path="url(#835a2b72bd)"><g clip-path="url(#2728f835b4)"><path fill="#febbcc" d="M 262.5 1660.125 L 297.875 1660.125 L 297.875 1695.5 L 262.5 1695.5 Z M 262.5 1660.125 " fill-opacity="1" fill-rule="nonzero"/></g></g><g clip-path="url(#edf2246562)"><g clip-path="url(#a7e57fdea6)"><path fill="#febbcc" d="M 262.5 1624.75 L 297.875 1624.75 L 297.875 1660.125 L 262.5 1660.125 Z M 262.5 1624.75 " fill-opacity="1" fill-rule="nonzero"/></g></g><g clip-path="url(#2ea48fe4a5)"><g clip-path="url(#b67653ea43)"><path fill="#febbcc" d="M 262.5 1589.375 L 297.875 1589.375 L 297.875 1624.75 L 262.5 1624.75 Z M 262.5 1589.375 " fill-opacity="1" fill-rule="nonzero"/></g></g><g clip-path="url(#f9dfd44725)"><g clip-path="url(#0e593eeae4)"><path fill="#febbcc" d="M 262.5 1554 L 297.875 1554 L 297.875 1589.375 L 262.5 1589.375 Z M 262.5 1554 " fill-opacity="1" fill-rule="nonzero"/></g></g><g clip-path="url(#9aca765a7d)"><g clip-path="url(#0e8851b537)"><path fill="#febbcc" d="M 262.5 1518.625 L 297.875 1518.625 L 297.875 1554 L 262.5 1554 Z M 262.5 1518.625 " fill-opacity="1" fill-rule="nonzero"/></g></g><g clip-path="url(#9d4657cbb3)"><g clip-path="url(#bbbdeb58a4)"><path fill="#febbcc" d="M 262.5 1483.25 L 297.875 1483.25 L 297.875 1518.625 L 262.5 1518.625 Z M 262.5 1483.25 " fill-opacity="1" fill-rule="nonzero"/></g></g><g clip-path="url(#d7ef1678e0)"><g clip-path="url(#ca0d2f3744)"><path fill="#febbcc" d="M 262.5 1447.875 L 297.875 1447.875 L 297.875 1483.25 L 262.5 1483.25 Z M 262.5 1447.875 " fill-opacity="1" fill-rule="nonzero"/></g></g><g clip-path="url(#5ef3f55355)"><g clip-path="url(#04e33a3f26)"><path fill="#febbcc" d="M 262.5 1412.5 L 297.875 1412.5 L 297.875 1447.875 L 262.5 1447.875 Z M 262.5 1412.5 " fill-opacity="1" fill-rule="nonzero"/></g></g></svg>