<?xml version="1.0" standalone="no"?><svg xmlns="http://www.w3.org/2000/svg" viewBox="0 0 1440 320"><path fill="#febbcc" fill-opacity="1" d="M0,192L34.3,213.3C68.6,235,137,277,206,288C274.3,299,343,277,411,250.7C480,224,549,192,617,165.3C685.7,139,754,117,823,122.7C891.4,128,960,160,1029,186.7C1097.1,213,1166,235,1234,229.3C1302.9,224,1371,192,1406,176L1440,160L1440,320L1405.7,320C1371.4,320,1303,320,1234,320C1165.7,320,1097,320,1029,320C960,320,891,320,823,320C754.3,320,686,320,617,320C548.6,320,480,320,411,320C342.9,320,274,320,206,320C137.1,320,69,320,34,320L0,320Z"></path></svg>